<svg width="255" height="144" viewBox="0 0 255 144" fill="none" xmlns="http://www.w3.org/2000/svg">
<g clip-path="url(#clip0_550_1954)">
<mask id="mask0_550_1954" style="mask-type:luminance" maskUnits="userSpaceOnUse" x="0" y="0" width="255" height="144">
<path d="M0 0L255 0L255 144L0 144L0 0Z" fill="white"/>
</mask>
<g mask="url(#mask0_550_1954)">
<path d="M27.3449 61.3227V71.4605H29.9832C30.802 71.4605 31.4537 71.3464 31.9391 71.1181C32.4239 70.8897 32.8035 70.5629 33.0764 70.1363C33.3188 69.7103 33.4857 69.1851 33.5767 68.5608C33.6677 67.9371 33.7132 67.2136 33.7132 66.3916C33.7132 65.5696 33.6677 64.8468 33.5767 64.2225C33.4857 63.5988 33.3038 63.058 33.031 62.6013C32.4544 61.7493 31.3627 61.3227 29.7557 61.3227H27.3449ZM22.7051 89.4532L22.7051 56.9387H30.1652C35.6237 56.9387 38.353 60.1203 38.353 66.4829C38.353 68.4009 38.0573 70.03 37.466 71.3693C36.8746 72.7092 35.8356 73.7896 34.3501 74.6116L39.3537 89.4532H34.4411L30.1197 75.5705H27.3449V89.4532H22.7051Z" fill="#053641"/>
<path d="M58.2765 78.0822L56.0021 66.3003H55.9111L53.6367 78.0822H58.2765ZM46.8135 89.4531L54.046 56.9387H57.9126L65.1452 89.4531H60.5054L59.1407 82.4662H52.8179L51.4533 89.4531H46.8135Z" fill="#053641"/>
<path d="M74.3789 56.9387H79.0187V89.4531H74.3789V56.9387Z" fill="#053641"/>
<path d="M90.1631 89.4531V56.9387H94.6209L101.626 76.5295H101.717V56.9387H106.357V89.4531H101.99L94.8939 69.9079H94.8029V89.4531H90.1631Z" fill="#053641"/>
<path d="M121.686 89.4531V75.7075L115.317 56.9387H120.23L123.96 69.8622H124.051L127.781 56.9387H132.694L126.326 75.7075V89.4531H121.686Z" fill="#053641"/>
<path d="M146.476 61.3227V85.0692H148.614C149.917 85.0692 150.843 84.7423 151.388 84.0873C151.934 83.4331 152.207 82.4055 152.207 81.0048V65.3413C152.207 64.0627 151.949 63.0736 151.434 62.3729C150.918 61.6729 149.978 61.3227 148.614 61.3227H146.476ZM141.836 89.4532V56.9387H148.705C151.373 56.9387 153.397 57.6693 154.777 59.1307C156.157 60.592 156.847 62.6627 156.847 65.3413V80.5481C156.847 83.5928 156.112 85.8383 154.641 87.284C153.17 88.7304 151.055 89.4532 148.295 89.4532H141.836Z" fill="#053641"/>
<path d="M176.861 78.0822L174.587 66.3003H174.496L172.222 78.0822H176.861ZM165.398 89.4531L172.631 56.9387H176.498L183.73 89.4531H179.09L177.726 82.4662H171.403L170.038 89.4531H165.398Z" fill="#053641"/>
<path d="M194.648 89.4531V75.7075L188.279 56.9387H193.192L196.922 69.8622H197.013L200.743 56.9387H205.656L199.287 75.7075V89.4531H194.648Z" fill="#053641"/>
<path d="M229.809 66.3003H225.17V65.25C225.17 64.1847 224.92 63.2635 224.419 62.4871C223.919 61.7108 223.077 61.3227 221.894 61.3227C221.258 61.3227 220.742 61.4447 220.348 61.688C219.954 61.932 219.635 62.236 219.393 62.6013C219.15 62.9973 218.983 63.4461 218.892 63.9484C218.801 64.4508 218.756 64.976 218.756 65.524C218.756 66.1633 218.779 66.6963 218.824 67.1223C218.87 67.5489 218.983 67.9293 219.165 68.264C219.347 68.5993 219.612 68.8883 219.961 69.1316C220.31 69.3756 220.787 69.6189 221.394 69.8623L224.942 71.278C225.973 71.6739 226.807 72.1384 227.444 72.6707C228.081 73.2037 228.581 73.8201 228.945 74.5201C229.279 75.2509 229.506 76.0808 229.627 77.0089C229.748 77.938 229.809 78.9956 229.809 80.1828C229.809 81.5529 229.673 82.8244 229.4 83.996C229.127 85.1684 228.687 86.1651 228.081 86.9871C227.444 87.8399 226.61 88.5097 225.579 88.9965C224.548 89.4831 223.289 89.7271 221.804 89.7271C220.681 89.7271 219.635 89.5288 218.665 89.1335C217.694 88.7381 216.86 88.1901 216.163 87.4895C215.465 86.7895 214.912 85.9753 214.503 85.0464C214.093 84.118 213.889 83.1055 213.889 82.0095V80.2743H218.528V81.7356C218.528 82.5881 218.779 83.3567 219.279 84.0417C219.779 84.7267 220.621 85.0692 221.804 85.0692C222.592 85.0692 223.206 84.9549 223.646 84.7267C224.085 84.4983 224.426 84.1715 224.669 83.7448C224.912 83.3189 225.056 82.8087 225.101 82.2149C225.147 81.6213 225.17 80.9591 225.17 80.2285C225.17 79.3765 225.139 78.6759 225.079 78.1279C225.018 77.5799 224.897 77.1389 224.715 76.8035C224.502 76.4689 224.222 76.1949 223.873 75.9815C223.524 75.7689 223.062 75.5407 222.486 75.2965L219.165 73.9265C217.164 73.1045 215.822 72.0164 215.14 70.6613C214.457 69.3071 214.116 67.6096 214.116 65.5696C214.116 64.3524 214.282 63.1949 214.616 62.0989C214.95 61.0031 215.45 60.0597 216.118 59.2676C216.754 58.4764 217.565 57.8448 218.551 57.3725C219.536 56.9008 220.712 56.6647 222.076 56.6647C223.229 56.6647 224.283 56.878 225.238 57.304C226.193 57.7307 227.019 58.2937 227.717 58.9936C229.112 60.4549 229.809 62.1296 229.809 64.0169V66.3003Z" fill="#053641"/>
<path d="M59.1309 116.861H61.2051C61.7252 116.852 62.1163 116.685 62.3786 116.36C62.6282 116.044 62.7529 115.692 62.7529 115.305C62.7529 114.985 62.7022 114.714 62.6006 114.495C62.4949 114.297 62.3469 114.141 62.1566 114.027C61.869 113.838 61.5349 113.748 61.1544 113.756H59.1309V116.861ZM57.7334 112.392H61.0792C61.4425 112.392 61.7931 112.427 62.1311 112.497C62.469 112.589 62.8112 112.777 63.1576 113.061C63.4485 113.276 63.6845 113.582 63.8657 113.98C64.0555 114.365 64.1504 114.82 64.1504 115.345C64.1504 116.053 63.9094 116.698 63.4279 117.28C62.9334 117.892 62.2109 118.207 61.2602 118.225H59.1309V121.959H57.7334V112.392Z" fill="#053641"/>
<path d="M65.5508 115.148H66.8697V119.208C66.8697 119.668 66.9943 120.027 67.2435 120.286C67.4882 120.544 67.8006 120.673 68.1806 120.673C68.5606 120.673 68.8708 120.544 69.1115 120.286C69.3564 120.027 69.4788 119.668 69.4788 119.208V115.148H70.7978V121.959H69.4787V121.23H69.4535C69.019 121.768 68.4519 122.038 67.752 122.038C67.208 122.029 66.7167 121.823 66.2782 121.422C65.8017 121.029 65.5591 120.448 65.5508 119.68V115.148Z" fill="#053641"/>
<path d="M72.9319 119.879C73.4693 120.461 74.1634 120.752 75.014 120.752C75.3948 120.752 75.7059 120.676 75.9472 120.522C76.1884 120.369 76.309 120.155 76.309 119.879C76.309 119.634 76.237 119.464 76.0933 119.367C75.9452 119.267 75.7486 119.212 75.5033 119.203L74.3363 119.098C73.7823 119.046 73.332 118.853 72.9852 118.521C72.63 118.197 72.4481 117.744 72.4397 117.163C72.4481 116.463 72.6868 115.938 73.1556 115.588C73.6118 115.238 74.1905 115.063 74.8916 115.063C75.1957 115.063 75.468 115.082 75.7089 115.122C75.9496 115.165 76.1755 115.227 76.3868 115.305C76.7921 115.476 77.1554 115.705 77.4765 115.994L76.6581 116.984C76.4042 116.794 76.1356 116.637 75.8523 116.514C75.5732 116.403 75.2518 116.348 74.888 116.348C74.4735 116.348 74.1837 116.425 74.0189 116.578C73.8454 116.731 73.7587 116.929 73.7587 117.169C73.7499 117.323 73.8155 117.456 73.9554 117.57C74.0822 117.697 74.3063 117.778 74.6277 117.813L75.7186 117.899C76.4036 117.951 76.8985 118.166 77.203 118.542C77.4863 118.91 77.6279 119.377 77.6279 119.942C77.6194 120.603 77.3598 121.113 76.8491 121.473C76.3423 121.84 75.6942 122.029 74.9049 122.037C73.8324 122.037 72.8678 121.631 72.0107 120.818L72.9319 119.879Z" fill="#053641"/>
<path d="M79.165 112.392H80.4841V115.87H80.5094C80.9437 115.332 81.5129 115.063 82.2171 115.063C82.7611 115.063 83.2587 115.262 83.71 115.66C84.1568 116.062 84.3909 116.653 84.4121 117.431V121.959H83.0931V117.899C83.0931 117.421 82.9706 117.058 82.7257 116.808C82.4851 116.554 82.1748 116.427 81.7949 116.427C81.4149 116.427 81.1025 116.554 80.8577 116.808C80.6086 117.058 80.484 117.421 80.484 117.899V121.959H79.165V112.392Z" fill="#053641"/>
<path d="M86.3936 115.148H87.7125V121.959H86.3936V115.148ZM86.3936 112.392H87.7125V113.756H86.3936V112.392Z" fill="#053641"/>
<path d="M89.5635 115.148H90.8826V115.87H90.9078C91.3421 115.332 91.9113 115.063 92.6155 115.063C93.1595 115.063 93.6572 115.262 94.1085 115.66C94.5552 116.062 94.7894 116.653 94.8105 117.431V121.959H93.4915V117.899C93.4915 117.421 93.3691 117.058 93.1242 116.808C92.8835 116.554 92.5733 116.427 92.1933 116.427C91.8133 116.427 91.5009 116.554 91.2562 116.808C91.007 117.058 90.8824 117.421 90.8824 117.899V121.959H89.5635V115.148Z" fill="#053641"/>
<path d="M97.8365 118.56C97.8365 119.082 97.8534 119.442 97.8871 119.64C97.9168 119.846 97.9864 120.017 98.0962 120.153C98.1848 120.276 98.3198 120.388 98.5014 120.489C98.6745 120.612 98.8899 120.673 99.1474 120.673C99.4049 120.673 99.6202 120.612 99.7933 120.489C99.9663 120.388 100.097 120.276 100.186 120.153C100.296 120.017 100.37 119.846 100.408 119.64C100.433 119.442 100.446 119.082 100.446 118.56C100.446 118.029 100.433 117.66 100.408 117.454C100.37 117.248 100.296 117.081 100.186 116.954C100.097 116.831 99.9663 116.71 99.7933 116.591C99.6202 116.49 99.4049 116.436 99.1474 116.427C98.8899 116.436 98.6745 116.49 98.5014 116.591C98.3198 116.71 98.1848 116.831 98.0962 116.954C97.9864 117.081 97.9168 117.248 97.8871 117.454C97.8534 117.66 97.8365 118.029 97.8365 118.56ZM100.446 121.248C100.011 121.757 99.4461 122.02 98.7503 122.038C98.3245 122.029 97.9703 121.935 97.6878 121.755C97.3925 121.584 97.1669 121.401 97.0108 121.204C96.8379 120.98 96.7136 120.707 96.6378 120.383C96.5576 120.063 96.5176 119.455 96.5176 118.557C96.5176 117.643 96.5576 117.023 96.6378 116.699C96.7136 116.38 96.8379 116.11 97.0108 115.892C97.1669 115.678 97.3925 115.487 97.6878 115.317C97.9703 115.156 98.3245 115.071 98.7503 115.063C99.4039 115.063 99.9691 115.332 100.446 115.87V115.148H101.765V121.795C101.748 122.818 101.463 123.571 100.911 124.052C100.355 124.546 99.6889 124.793 98.9132 124.793C98.0241 124.776 97.2654 124.396 96.6375 123.654L97.6623 122.809C97.831 122.972 98.0249 123.11 98.2443 123.225C98.4677 123.352 98.6996 123.42 98.9399 123.429C99.3912 123.429 99.754 123.299 100.028 123.04C100.298 122.777 100.437 122.412 100.446 121.946V121.248Z" fill="#053641"/>
<path d="M106.987 113.075H108.306V115.148H109.269V116.197H108.306V120.168C108.298 120.514 108.454 120.682 108.775 120.673H109.269V121.959H108.58C108.116 121.959 107.737 121.81 107.443 121.513C107.139 121.229 106.987 120.818 106.987 120.281V116.197H106.325V115.148H106.987V113.075Z" fill="#053641"/>
<path d="M110.628 112.392H111.947V115.87H111.972C112.407 115.332 112.976 115.063 113.68 115.063C114.224 115.063 114.722 115.262 115.173 115.66C115.62 116.062 115.854 116.653 115.875 117.431V121.959H114.556V117.899C114.556 117.421 114.434 117.058 114.189 116.808C113.948 116.554 113.638 116.427 113.258 116.427C112.878 116.427 112.565 116.554 112.321 116.808C112.071 117.058 111.947 117.421 111.947 117.899V121.959H110.628V112.392Z" fill="#053641"/>
<path d="M121.588 117.944C121.571 117.412 121.434 117.01 121.176 116.737C120.922 116.478 120.596 116.348 120.199 116.348C119.801 116.348 119.475 116.478 119.222 116.737C118.972 117.01 118.835 117.412 118.809 117.944H121.588ZM118.809 119.071C118.809 119.618 118.961 120.034 119.265 120.319C119.548 120.608 119.92 120.752 120.38 120.752C120.917 120.752 121.396 120.531 121.818 120.089L122.775 120.936C122.104 121.679 121.315 122.046 120.408 122.037C120.062 122.037 119.724 121.985 119.395 121.88C119.23 121.823 119.07 121.747 118.914 121.65C118.75 121.567 118.596 121.464 118.452 121.342C118.174 121.088 117.948 120.734 117.775 120.279C117.585 119.842 117.49 119.273 117.49 118.573C117.49 117.899 117.572 117.339 117.737 116.893C117.901 116.438 118.112 116.08 118.37 115.817C118.631 115.551 118.924 115.358 119.249 115.24C119.57 115.122 119.886 115.063 120.199 115.063C120.95 115.071 121.584 115.327 122.103 115.831C122.631 116.342 122.899 117.047 122.907 117.944V119.071H118.809Z" fill="#053641"/>
<path d="M134.063 119.286C133.86 120.173 133.474 120.854 132.904 121.33C132.317 121.802 131.622 122.038 130.82 122.038C130.095 122.02 129.489 121.836 129.004 121.486C128.51 121.15 128.152 120.76 127.928 120.318C127.861 120.174 127.8 120.036 127.745 119.905C127.694 119.769 127.652 119.599 127.618 119.393C127.555 119.008 127.523 118.269 127.523 117.175C127.523 116.064 127.555 115.321 127.618 114.944C127.686 114.568 127.789 114.264 127.929 114.033C128.152 113.591 128.511 113.197 129.005 112.851C129.49 112.502 130.096 112.322 130.822 112.313C131.712 112.322 132.438 112.595 132.999 113.132C133.561 113.674 133.915 114.344 134.063 115.144H132.579C132.465 114.758 132.258 114.429 131.958 114.157C131.645 113.899 131.265 113.765 130.817 113.756C130.487 113.765 130.204 113.833 129.967 113.96C129.726 114.092 129.531 114.256 129.384 114.453C129.202 114.659 129.081 114.925 129.022 115.249C128.954 115.591 128.921 116.233 128.921 117.175C128.921 118.118 128.954 118.756 129.022 119.089C129.081 119.422 129.202 119.692 129.384 119.898C129.532 120.095 129.726 120.255 129.967 120.378C130.204 120.522 130.488 120.594 130.817 120.594C131.604 120.594 132.192 120.158 132.581 119.286H134.063Z" fill="#053641"/>
<path d="M138.935 118.56C138.935 118.073 138.914 117.717 138.871 117.493C138.829 117.278 138.742 117.09 138.611 116.927C138.514 116.774 138.37 116.653 138.18 116.565C137.998 116.473 137.786 116.427 137.545 116.427C137.321 116.427 137.114 116.473 136.924 116.565C136.742 116.653 136.594 116.774 136.48 116.927C136.365 117.09 136.283 117.278 136.232 117.493C136.181 117.717 136.156 118.068 136.156 118.547C136.156 119.021 136.181 119.368 136.232 119.587C136.283 119.811 136.365 120.008 136.48 120.18C136.594 120.311 136.742 120.428 136.924 120.528C137.114 120.625 137.321 120.673 137.545 120.673C137.786 120.673 137.998 120.625 138.18 120.528C138.37 120.428 138.514 120.311 138.611 120.18C138.742 120.008 138.829 119.811 138.871 119.587C138.914 119.368 138.935 119.025 138.935 118.56ZM134.837 118.547C134.837 117.828 134.894 117.276 135.008 116.89C135.126 116.514 135.307 116.196 135.552 115.937C135.734 115.711 135.987 115.509 136.312 115.33C136.633 115.161 137.044 115.071 137.547 115.063C138.066 115.072 138.486 115.161 138.806 115.332C139.123 115.511 139.368 115.714 139.541 115.942C139.801 116.2 139.987 116.517 140.096 116.893C140.201 117.278 140.254 117.829 140.254 118.547C140.254 119.264 140.201 119.811 140.096 120.187C139.986 120.563 139.8 120.889 139.539 121.165C139.454 121.266 139.351 121.364 139.229 121.46C139.119 121.569 138.978 121.663 138.805 121.742C138.484 121.93 138.064 122.029 137.545 122.038C137.043 122.029 136.632 121.93 136.311 121.742C135.987 121.572 135.733 121.379 135.552 121.165C135.307 120.889 135.126 120.563 135.008 120.187C134.894 119.811 134.837 119.264 134.837 118.547Z" fill="#053641"/>
<path d="M141.803 115.148H143.124V115.87H143.15C143.598 115.332 144.189 115.063 144.921 115.063C145.391 115.072 145.771 115.152 146.058 115.306C146.341 115.476 146.601 115.693 146.836 115.955C147.368 115.351 148.08 115.054 148.974 115.063C149.536 115.063 150.05 115.262 150.516 115.66C150.978 116.062 151.218 116.653 151.235 117.431V121.959H149.915V117.899C149.915 117.421 149.788 117.058 149.536 116.808C149.283 116.554 148.957 116.427 148.558 116.427C148.159 116.427 147.831 116.554 147.574 116.808C147.312 117.058 147.182 117.421 147.182 117.899V121.959H145.863V117.899C145.863 117.421 145.736 117.058 145.484 116.808C145.227 116.554 144.899 116.427 144.5 116.427C144.101 116.427 143.775 116.554 143.522 116.808C143.256 117.058 143.123 117.421 143.123 117.899V121.959H141.803V115.148Z" fill="#053641"/>
<path d="M153.47 116.197H152.804V115.148H153.47V114.249C153.47 113.602 153.643 113.125 153.989 112.819C154.326 112.534 154.75 112.392 155.261 112.392H156.115V113.678H155.36C154.962 113.664 154.772 113.854 154.789 114.245V115.148H156.115V116.197H154.789V121.959H153.47V116.197Z" fill="#053641"/>
<path d="M160.751 118.56C160.751 118.073 160.73 117.717 160.688 117.493C160.645 117.278 160.559 117.09 160.428 116.927C160.33 116.774 160.187 116.653 159.996 116.565C159.814 116.473 159.603 116.427 159.362 116.427C159.138 116.427 158.93 116.473 158.74 116.565C158.558 116.653 158.41 116.774 158.296 116.927C158.182 117.09 158.099 117.278 158.049 117.493C157.998 117.717 157.972 118.068 157.972 118.547C157.972 119.021 157.998 119.368 158.049 119.587C158.099 119.811 158.182 120.008 158.296 120.18C158.41 120.311 158.558 120.428 158.74 120.528C158.93 120.625 159.138 120.673 159.362 120.673C159.603 120.673 159.814 120.625 159.996 120.528C160.187 120.428 160.33 120.311 160.428 120.18C160.559 120.008 160.645 119.811 160.688 119.587C160.73 119.368 160.751 119.025 160.751 118.56ZM156.653 118.547C156.653 117.828 156.71 117.276 156.824 116.89C156.942 116.514 157.124 116.196 157.369 115.937C157.55 115.711 157.803 115.509 158.128 115.33C158.449 115.161 158.861 115.071 159.363 115.063C159.882 115.072 160.302 115.161 160.623 115.332C160.939 115.511 161.184 115.714 161.357 115.942C161.618 116.2 161.803 116.517 161.912 116.893C162.018 117.278 162.07 117.829 162.07 118.547C162.07 119.264 162.017 119.811 161.912 120.187C161.802 120.563 161.617 120.889 161.355 121.165C161.271 121.266 161.167 121.364 161.045 121.46C160.935 121.569 160.794 121.663 160.621 121.742C160.3 121.93 159.881 122.029 159.362 122.038C158.86 122.029 158.448 121.93 158.128 121.742C157.803 121.572 157.55 121.379 157.368 121.165C157.124 120.889 156.942 120.563 156.824 120.187C156.71 119.811 156.653 119.264 156.653 118.547Z" fill="#053641"/>
<path d="M163.672 115.148H164.991V115.87H165.018C165.453 115.332 166.023 115.063 166.728 115.063C167.256 115.072 167.716 115.246 168.109 115.586L167.146 116.769C166.867 116.541 166.577 116.427 166.277 116.427C165.939 116.427 165.65 116.541 165.409 116.768C165.139 116.992 164.999 117.353 164.991 117.852V121.959H163.672V115.148Z" fill="#053641"/>
<path d="M168.96 113.075H170.279V115.148H171.242V116.197H170.279V120.168C170.27 120.514 170.426 120.682 170.748 120.673H171.242V121.959H170.553C170.089 121.959 169.71 121.81 169.415 121.513C169.112 121.229 168.96 120.818 168.96 120.281V116.197H168.298V115.148H168.96V113.075Z" fill="#053641"/>
<path d="M175.365 120.758L179.55 113.678H175.4V112.392H181.259V113.482L176.926 120.594H181.259V121.959H175.365V120.758Z" fill="#053641"/>
<path d="M186.528 118.56C186.528 118.073 186.506 117.717 186.464 117.493C186.422 117.278 186.335 117.09 186.204 116.927C186.107 116.774 185.963 116.653 185.773 116.565C185.591 116.473 185.379 116.427 185.138 116.427C184.914 116.427 184.707 116.473 184.516 116.565C184.334 116.653 184.187 116.774 184.072 116.927C183.958 117.09 183.875 117.278 183.825 117.493C183.774 117.717 183.749 118.068 183.749 118.547C183.749 119.021 183.774 119.368 183.825 119.587C183.875 119.811 183.958 120.008 184.072 120.18C184.187 120.311 184.334 120.428 184.516 120.528C184.707 120.625 184.914 120.673 185.138 120.673C185.379 120.673 185.591 120.625 185.773 120.528C185.963 120.428 186.107 120.311 186.204 120.18C186.335 120.008 186.422 119.811 186.464 119.587C186.506 119.368 186.528 119.025 186.528 118.56ZM182.43 118.547C182.43 117.828 182.487 117.276 182.601 116.89C182.719 116.514 182.9 116.196 183.145 115.937C183.326 115.711 183.58 115.509 183.905 115.33C184.225 115.161 184.637 115.071 185.139 115.063C185.658 115.072 186.078 115.161 186.399 115.332C186.716 115.511 186.96 115.714 187.134 115.942C187.394 116.2 187.579 116.517 187.689 116.893C187.794 117.278 187.847 117.829 187.847 118.547C187.847 119.264 187.794 119.811 187.688 120.187C187.579 120.563 187.393 120.889 187.132 121.165C187.047 121.266 186.944 121.364 186.821 121.46C186.712 121.569 186.57 121.663 186.397 121.742C186.077 121.93 185.657 122.029 185.138 122.038C184.636 122.029 184.225 121.93 183.904 121.742C183.579 121.572 183.326 121.379 183.145 121.165C182.9 120.889 182.719 120.563 182.601 120.187C182.487 119.811 182.43 119.264 182.43 118.547Z" fill="#053641"/>
<path d="M189.449 115.148H190.768V115.87H190.794C191.228 115.332 191.797 115.063 192.501 115.063C193.045 115.063 193.543 115.262 193.994 115.66C194.441 116.062 194.675 116.653 194.696 117.431V121.959H193.377V117.899C193.377 117.421 193.255 117.058 193.01 116.808C192.769 116.554 192.459 116.427 192.079 116.427C191.699 116.427 191.387 116.554 191.142 116.808C190.893 117.058 190.768 117.421 190.768 117.899V121.959H189.449V115.148Z" fill="#053641"/>
<path d="M200.41 117.944C200.393 117.412 200.256 117.01 199.998 116.737C199.744 116.478 199.418 116.348 199.021 116.348C198.623 116.348 198.298 116.478 198.044 116.737C197.794 117.01 197.657 117.412 197.631 117.944H200.41ZM197.631 119.071C197.631 119.618 197.784 120.034 198.088 120.319C198.371 120.608 198.742 120.752 199.202 120.752C199.739 120.752 200.218 120.531 200.64 120.089L201.597 120.936C200.926 121.679 200.137 122.046 199.23 122.037C198.884 122.037 198.546 121.985 198.217 121.88C198.053 121.823 197.893 121.747 197.737 121.65C197.572 121.567 197.418 121.464 197.274 121.342C196.996 121.088 196.77 120.734 196.597 120.279C196.407 119.842 196.312 119.273 196.312 118.573C196.312 117.899 196.395 117.339 196.559 116.893C196.724 116.438 196.935 116.08 197.192 115.817C197.454 115.551 197.747 115.358 198.072 115.24C198.392 115.122 198.709 115.063 199.021 115.063C199.772 115.071 200.407 115.327 200.926 115.831C201.453 116.342 201.721 117.047 201.73 117.944V119.071H197.631Z" fill="#053641"/>
<path fill-rule="evenodd" clip-rule="evenodd" d="M55.938 52.6335C59.2536 52.1985 64.3132 51.1161 64.6372 50.8462C85.9466 33.2565 62.1389 60.5179 85.5435 41.2858C95.5293 33.0811 91.9585 36.5411 99.8037 43.2822C102.577 45.6698 105.577 39.3805 102.724 34.3525C102.64 34.2074 108.591 27.0582 108.676 27.0009C108.604 26.4546 110.989 38.8038 110.864 30.2518C110.864 30.191 112.583 24.2423 113.674 24.1715C116.035 24.0198 112.678 21.8986 116.734 19.3526C117.709 18.7422 119.056 15.6397 119.295 15.0326C119.335 15.0934 125.499 20.6409 126.435 21.7807C127.452 23.0149 132.857 24.2762 132.657 28.6129C132.646 28.8523 134.649 33.1823 134.521 35.4857C134.413 37.4582 139.859 39.8089 141.854 44.7661C144.41 51.1193 141.163 38.7094 143.779 42.7089C145.906 45.9699 147.407 44.7895 150.975 50.0841C151.37 50.6642 152.353 52.0331 152.972 52.6335H153.488C153.447 52.3435 153.271 51.8074 152.907 50.9406C152.315 49.5345 151.677 44.3175 150.902 43.8386C149.571 43.0191 144.444 39.6738 144.46 38.5947C144.544 33.4217 151.164 42.2841 149.415 38.6318C146.063 31.6345 147.533 36.1802 145.668 35.1517C146.517 34.0758 145.941 33.3813 146.179 32.727C147.46 32.2986 147.68 32.9191 144.71 30.0798C141.552 27.065 145.664 25.6823 143.946 21.8817C143.211 20.2598 145.902 20.4147 147.719 21.8954C148.651 22.6575 155.508 25.6858 160.001 27.5473C163.564 31.7254 167.779 34.5145 172.644 35.9138C168.933 33.8263 165.889 31.4995 163.512 28.9299C163.682 28.9873 163.805 29.0209 163.872 29.0343C169.135 29.9011 167.828 30.8689 170.958 32.6258C172.967 32.899 177.153 37.9203 182.873 39.3738C185.898 40.1461 189.023 45.5955 192.285 47.9325C198.466 52.3537 194.247 50.0875 201.006 52.067C201.671 52.2625 202.234 52.4514 202.731 52.6335H205.102C201.444 51.3757 199.158 48.2293 196.548 47.3222C191.405 45.5417 188.789 41.6939 185.464 37.9203C181.952 33.9342 176.967 34.3659 175.144 32.1503C173.892 30.6261 166.573 26.7175 164.566 26.0566C164.515 26.0095 164.385 25.9823 164.302 25.9251C164.028 25.7397 163.895 25.7397 163.696 25.6285C163.238 25.3653 163.101 25.6351 162.606 25.625C162.42 25.625 161.793 25.227 161.774 25.1731C161.719 25.1427 161.476 25.0415 161.442 25.0146C161.131 24.7517 160.31 24.1682 159.924 24.1277C159.649 24.1007 159.162 23.7703 158.963 23.7062C158.429 23.5307 158.269 23.1295 157.505 22.9979C156.907 22.8967 156.138 22.6979 155.617 22.3809C155.624 22.3169 149.267 20.5329 148.922 20.4419C148.859 20.4282 148.714 20.3677 148.527 20.2834C147.196 18.7826 145.036 18.4758 143.362 17.5315C142.59 17.0999 139.535 18.7355 138.457 19.4369C137.891 19.8079 137.588 19.8011 137.218 20.1147C136.992 20.3069 135.37 21.0253 135.108 20.7958C134.879 20.5937 135.03 20.6645 134.8 20.6139C133.852 20.4047 134.057 20.9477 133.599 21.0117C132.783 21.123 133.129 21.2445 132.714 21.3894C132.028 21.6357 132.453 21.8077 131.731 21.7942C131.177 20.9578 129.609 20.725 128.874 19.6225C128.712 19.3762 127.338 18.1454 126.899 18.1351C126.345 18.1285 124.768 16.4963 123.883 16.2029C123.875 16.1995 122.844 15.4711 122.788 15.424C122.781 15.4171 122.003 15.0733 121.797 14.8843C121.518 14.6281 120.516 14.2166 119.737 14.0041C119.397 13.8051 119.053 13.6367 118.729 13.559C117.562 13.2724 117.441 12.5979 116.6 12.9689C114.906 13.7076 115.284 13.3938 113.468 14.5842C113.297 14.5606 112.35 14.7495 112.258 14.8405C111.772 15.3093 111.415 15.859 110.874 15.8487C109.904 15.8319 110.213 16.0445 109.112 16.6211C108.181 17.1169 107.996 17.4777 106.978 17.9026C106.526 18.0947 105.458 19.1031 105.007 19.0558C104.736 19.221 104.284 18.8467 103.752 19.6695C103.656 19.8179 103.056 19.8011 102.499 20.5025C102.476 20.5329 101.905 20.8127 101.749 20.9747C100.787 21.9627 101.305 21.3558 100.871 21.6018C100.26 21.9527 99.6132 22.337 98.9621 22.5934C97.6708 23.0925 97.7262 23.4667 97.1047 23.8343C96.2809 24.3233 96.2279 24.6099 95.1731 24.9775C94.6048 25.1799 92.7369 26.6535 92.1205 26.7649C91.5269 26.8661 89.3436 28.9231 88.486 29.2975C88.4189 29.3311 88.2124 29.4862 88.1536 29.5402C86.8913 29.6921 86.4646 30.5586 85.3831 31.0779C84.8893 31.3139 84.7803 31.621 84.1705 31.7895C83.3046 32.0222 82.0508 33.307 81.6906 33.4283C80.9616 33.6813 79.7792 34.7909 79.1082 34.7267C79.0981 34.7233 77.0919 35.8565 77.0365 35.9374C76.9812 36.015 76.9098 36.0419 76.9131 36.1162C76.174 36.6962 76.6528 35.6778 75.2386 37.3606C74.3332 38.4362 71.9854 39.1579 70.4906 40.8238C70.158 41.1947 70.017 40.3011 68.3718 42.7629C66.9114 44.9449 65.5895 44.6649 63.7473 46.1418C62.3691 47.2446 61.4436 46.7691 59.3661 48.4351C57.9418 49.5749 56.3723 50.5529 54.801 51.3925C54.1905 51.7229 53.695 52.4311 53.082 52.6335H55.938Z" fill="#053641"/>
<path fill-rule="evenodd" clip-rule="evenodd" d="M225.968 99.5855C159.458 101.358 92.8165 101.358 26.2988 99.5855C92.8358 98.5691 159.427 98.5691 225.968 99.5855Z" fill="#053641"/>
<path fill-rule="evenodd" clip-rule="evenodd" d="M216.945 122.51C213.072 120.07 209.975 116.863 207.663 112.903C211.203 115.669 214.299 118.873 216.945 122.51Z" fill="#053641"/>
<path fill-rule="evenodd" clip-rule="evenodd" d="M206.683 122.51C209.328 118.873 212.424 115.669 215.964 112.903C213.653 116.863 210.555 120.07 206.683 122.51Z" fill="#053641"/>
<path fill-rule="evenodd" clip-rule="evenodd" d="M52.9642 122.51C49.0919 120.07 45.9942 116.863 43.6826 112.903C47.223 115.669 50.3185 118.873 52.9642 122.51Z" fill="#053641"/>
<path fill-rule="evenodd" clip-rule="evenodd" d="M42.7021 122.51C45.3479 118.873 48.4434 115.669 51.9838 112.903C49.6721 116.863 46.5744 120.07 42.7021 122.51Z" fill="#053641"/>
</g>
<rect x="12.8047" y="95.714" width="225.331" height="44.6197" fill="#FAFDFD"/>
<rect x="12.8047" y="8.50275" width="225.331" height="44.6197" fill="#FAFDFD"/>
</g>
<defs>
<clipPath id="clip0_550_1954">
<rect width="255" height="144" fill="white"/>
</clipPath>
</defs>
</svg>
