<svg width="24" height="24" viewBox="0 0 24 24" fill="none" xmlns="http://www.w3.org/2000/svg">
<path d="M7.20666 24C6.54605 24 5.98033 23.7648 5.50949 23.2944C5.03866 22.824 4.80364 22.2592 4.80444 21.6C4.80444 20.94 5.03986 20.3748 5.51069 19.9044C5.98153 19.434 6.54685 19.1992 7.20666 19.2C7.86727 19.2 8.43299 19.4352 8.90383 19.9056C9.37466 20.376 9.60968 20.9408 9.60888 21.6C9.60888 22.26 9.37346 22.8252 8.90263 23.2956C8.43179 23.766 7.86647 24.0008 7.20666 24ZM19.2178 24C18.5571 24 17.9914 23.7648 17.5206 23.2944C17.0498 22.824 16.8147 22.2592 16.8155 21.6C16.8155 20.94 17.051 20.3748 17.5218 19.9044C17.9926 19.434 18.5579 19.1992 19.2178 19.2C19.8784 19.2 20.4441 19.4352 20.9149 19.9056C21.3858 20.376 21.6208 20.9408 21.62 21.6C21.62 22.26 21.3846 22.8252 20.9137 23.2956C20.4429 23.766 19.8776 24.0008 19.2178 24ZM6.18572 4.8L9.06838 10.8H17.4761L20.7792 4.8H6.18572ZM5.04466 2.4H22.761C23.2215 2.4 23.5718 2.6052 23.812 3.0156C24.0522 3.426 24.0622 3.8408 23.842 4.26L19.5781 11.94C19.3579 12.34 19.0624 12.65 18.6917 12.87C18.3209 13.09 17.9158 13.2 17.4761 13.2H8.52788L7.20666 15.6H21.62V18H7.20666C6.30583 18 5.6252 17.6048 5.16477 16.8144C4.70435 16.024 4.68433 15.2392 5.10472 14.46L6.72621 11.52L2.40222 2.4H0V0H3.90361L5.04466 2.4Z" fill="#053641"/>
</svg>
