<svg width="59" height="59" viewBox="0 0 59 59" fill="none" xmlns="http://www.w3.org/2000/svg">
<g clip-path="url(#clip0_558_1698)">
<path d="M31.8108 29.5L45.3972 15.9136C45.6657 15.6001 45.806 15.1968 45.7901 14.7843C45.7741 14.3719 45.6032 13.9806 45.3113 13.6887C45.0194 13.3968 44.6281 13.2258 44.2157 13.2099C43.8032 13.194 43.3999 13.3343 43.0864 13.6028L29.5 27.1892L15.9136 13.5864C15.605 13.2778 15.1864 13.1044 14.75 13.1044C14.3136 13.1044 13.895 13.2778 13.5864 13.5864C13.2778 13.895 13.1044 14.3136 13.1044 14.75C13.1044 15.1864 13.2778 15.605 13.5864 15.9136L27.1892 29.5L13.5864 43.0864C13.4148 43.2333 13.2755 43.4141 13.1771 43.6174C13.0787 43.8208 13.0235 44.0422 13.0147 44.2679C13.006 44.4936 13.0441 44.7187 13.1264 44.929C13.2088 45.1393 13.3338 45.3303 13.4935 45.4901C13.6533 45.6498 13.8443 45.7748 14.0546 45.8572C14.2649 45.9395 14.49 45.9776 14.7157 45.9689C14.9414 45.9601 15.1628 45.9049 15.3662 45.8065C15.5695 45.7081 15.7503 45.5688 15.8972 45.3972L29.5 31.8108L43.0864 45.3972C43.3999 45.6657 43.8032 45.806 44.2157 45.7901C44.6281 45.7741 45.0194 45.6032 45.3113 45.3113C45.6032 45.0194 45.7741 44.6281 45.7901 44.2157C45.806 43.8032 45.6657 43.3999 45.3972 43.0864L31.8108 29.5Z" fill="#053641"/>
</g>
<rect x="0.5" y="0.5" width="58" height="58" stroke="#053641"/>
<defs>
<clipPath id="clip0_558_1698">
<rect width="59" height="59" fill="white"/>
</clipPath>
</defs>
</svg>
