<svg width="284" height="160" viewBox="0 0 284 160" fill="none" xmlns="http://www.w3.org/2000/svg">
<mask id="mask0_943_1983" style="mask-type:luminance" maskUnits="userSpaceOnUse" x="0" y="0" width="284" height="160">
<path d="M0 0H284V160H0V0Z" fill="white"/>
</mask>
<g mask="url(#mask0_943_1983)">
<path d="M30.4543 68.1363V79.4006H33.3926C34.3045 79.4006 35.0304 79.2738 35.571 79.0201C36.1109 78.7664 36.5336 78.4032 36.8376 77.9292C37.1076 77.4558 37.2935 76.8723 37.3948 76.1786C37.4961 75.4856 37.5469 74.6818 37.5469 73.7684C37.5469 72.8551 37.4961 72.052 37.3948 71.3584C37.2935 70.6653 37.0908 70.0644 36.787 69.557C36.1449 68.6104 34.929 68.1363 33.1393 68.1363H30.4543ZM25.2868 99.3924V63.2652H33.5953C39.6747 63.2652 42.7143 66.8003 42.7143 73.8699C42.7143 76.001 42.3849 77.8111 41.7264 79.2992C41.0677 80.788 39.9106 81.9884 38.2561 82.9018L43.8288 99.3924H38.3575L33.5447 83.9672H30.4543V99.3924H25.2868Z" fill="#053641"/>
<path d="M64.9036 86.758L62.3706 73.667H62.2693L59.7362 86.758H64.9036ZM52.137 99.3923L60.1921 63.2652H64.4984L72.5535 99.3923H67.386L65.8661 91.6291H58.8243L57.3044 99.3923H52.137Z" fill="#053641"/>
<path d="M82.8374 63.2652H88.0049V99.3923H82.8374V63.2652Z" fill="#053641"/>
<path d="M100.417 99.3924V63.2653H105.382L113.183 85.0328H113.285V63.2653H118.452V99.3924H113.589L105.686 77.6755H105.584V99.3924H100.417Z" fill="#053641"/>
<path d="M135.524 99.3924V84.1195L128.431 63.2653H133.903L138.057 77.6247H138.158L142.313 63.2653H147.784L140.691 84.1195V99.3924H135.524Z" fill="#053641"/>
<path d="M163.134 68.1363V94.5213H165.515C166.966 94.5213 167.997 94.1581 168.605 93.4304C169.213 92.7034 169.517 91.5616 169.517 90.0053V72.6015C169.517 71.1807 169.23 70.0818 168.656 69.3032C168.081 68.5255 167.035 68.1363 165.515 68.1363H163.134ZM157.966 99.3924V63.2652H165.616C168.588 63.2652 170.842 64.077 172.379 65.7007C173.916 67.3244 174.684 69.6252 174.684 72.6015V89.4979C174.684 92.8809 173.865 95.3758 172.227 96.9822C170.589 98.5893 168.233 99.3924 165.16 99.3924H157.966Z" fill="#053641"/>
<path d="M196.975 86.758L194.442 73.667H194.341L191.808 86.758H196.975ZM184.209 99.3923L192.264 63.2652H196.57L204.625 99.3923H199.458L197.938 91.6291H190.896L189.376 99.3923H184.209Z" fill="#053641"/>
<path d="M216.784 99.3924V84.1195L209.692 63.2653H215.163L219.317 77.6247H219.419L223.573 63.2653H229.044L221.952 84.1195V99.3924H216.784Z" fill="#053641"/>
<path d="M255.944 73.667H250.777V72.5C250.777 71.3163 250.499 70.2927 249.941 69.4301C249.384 68.5676 248.447 68.1363 247.129 68.1363C246.42 68.1363 245.846 68.2719 245.407 68.5422C244.968 68.8133 244.613 69.1511 244.343 69.557C244.072 69.997 243.887 70.4957 243.786 71.0538C243.685 71.612 243.634 72.1956 243.634 72.8044C243.634 73.5148 243.659 74.107 243.71 74.5803C243.761 75.0544 243.887 75.477 244.09 75.8489C244.293 76.2215 244.588 76.5425 244.976 76.8129C245.364 77.084 245.896 77.3544 246.572 77.6247L250.524 79.1978C251.671 79.6376 252.601 80.1538 253.31 80.7452C254.019 81.3375 254.577 82.0224 254.982 82.8002C255.353 83.6122 255.607 84.5342 255.742 85.5655C255.876 86.5978 255.944 87.7729 255.944 89.092C255.944 90.6144 255.793 92.0271 255.489 93.3289C255.185 94.6316 254.695 95.739 254.019 96.6523C253.31 97.5999 252.381 98.3442 251.233 98.885C250.084 99.4256 248.683 99.6967 247.028 99.6967C245.778 99.6967 244.613 99.4764 243.533 99.0372C242.451 98.5979 241.523 97.989 240.746 97.2105C239.969 96.4327 239.353 95.5282 238.897 94.496C238.441 93.4644 238.213 92.3394 238.213 91.1216V89.1936H243.381V90.8173C243.381 91.7646 243.659 92.6185 244.216 93.3797C244.774 94.1407 245.711 94.5213 247.028 94.5213C247.906 94.5213 248.59 94.3944 249.08 94.1407C249.569 93.887 249.949 93.5239 250.22 93.0498C250.49 92.5766 250.65 92.0096 250.701 91.3499C250.752 90.6904 250.777 89.9545 250.777 89.1428C250.777 88.1962 250.743 87.4176 250.676 86.8087C250.608 86.1999 250.473 85.7099 250.271 85.3372C250.034 84.9655 249.721 84.661 249.333 84.4239C248.945 84.1877 248.429 83.9341 247.788 83.6628L244.09 82.1406C241.861 81.2273 240.366 80.0182 239.606 78.5126C238.846 77.0079 238.467 75.1218 238.467 72.8551C238.467 71.5027 238.652 70.2166 239.024 68.9988C239.395 67.7812 239.952 66.733 240.695 65.8529C241.405 64.9738 242.308 64.272 243.406 63.7473C244.503 63.2231 245.812 62.9607 247.332 62.9607C248.615 62.9607 249.789 63.1978 250.853 63.6711C251.917 64.1452 252.837 64.7708 253.614 65.5485C255.167 67.1722 255.944 69.0329 255.944 71.1299V73.667Z" fill="#053641"/>
<path d="M65.8555 129.846H68.1656C68.7449 129.836 69.1805 129.65 69.4726 129.289C69.7505 128.937 69.8894 128.547 69.8894 128.117C69.8894 127.761 69.8329 127.46 69.7198 127.216C69.602 126.997 69.4373 126.823 69.2253 126.696C68.905 126.486 68.5329 126.386 68.1091 126.396H65.8555V129.846ZM64.2991 124.88H68.0254C68.4299 124.88 68.8204 124.919 69.1969 124.997C69.5732 125.099 69.9544 125.308 70.3401 125.624C70.6641 125.862 70.9269 126.202 71.1288 126.644C71.3402 127.072 71.4458 127.577 71.4458 128.161C71.4458 128.948 71.1775 129.665 70.6411 130.311C70.0905 130.991 69.2858 131.341 68.227 131.361H65.8555V135.51H64.2991V124.88Z" fill="#053641"/>
<path d="M73.0049 127.942H74.4738V132.454C74.4738 132.964 74.6126 133.364 74.8901 133.651C75.1627 133.938 75.5106 134.081 75.9338 134.081C76.357 134.081 76.7025 133.938 76.9705 133.651C77.2433 133.364 77.3797 132.964 77.3797 132.454V127.942H78.8486V135.51H77.3795V134.7H77.3514C76.8676 135.298 76.236 135.597 75.4565 135.597C74.8506 135.587 74.3034 135.359 73.815 134.913C73.2843 134.476 73.0142 133.831 73.0049 132.978V127.942Z" fill="#053641"/>
<path d="M81.2252 133.199C81.8237 133.845 82.5967 134.169 83.5441 134.169C83.9682 134.169 84.3146 134.084 84.5834 133.914C84.852 133.744 84.9863 133.505 84.9863 133.199C84.9863 132.927 84.9061 132.738 84.7461 132.631C84.5812 132.519 84.3622 132.458 84.089 132.448L82.7893 132.331C82.1723 132.273 81.6708 132.059 81.2845 131.69C80.889 131.33 80.6864 130.827 80.6771 130.181C80.6864 129.403 80.9522 128.82 81.4743 128.431C81.9824 128.042 82.6269 127.847 83.4077 127.847C83.7465 127.847 84.0497 127.869 84.318 127.913C84.586 127.961 84.8377 128.029 85.073 128.117C85.5244 128.307 85.929 128.561 86.2866 128.882L85.3752 129.982C85.0924 129.771 84.7933 129.597 84.4778 129.46C84.1668 129.337 83.8089 129.276 83.4037 129.276C82.9421 129.276 82.6193 129.361 82.4358 129.531C82.2426 129.702 82.146 129.921 82.146 130.188C82.1362 130.359 82.2093 130.507 82.3651 130.633C82.5063 130.775 82.7559 130.865 83.1138 130.904L84.3288 130.998C85.0918 131.057 85.6429 131.295 85.9821 131.714C86.2976 132.123 86.4553 132.641 86.4553 133.269C86.4458 134.004 86.1566 134.57 85.5879 134.969C85.0234 135.378 84.3016 135.587 83.4225 135.597C82.2281 135.597 81.1538 135.145 80.1993 134.242L81.2252 133.199Z" fill="#053641"/>
<path d="M88.1672 124.88H89.6363V128.744H89.6644C90.1481 128.146 90.7821 127.847 91.5664 127.847C92.1722 127.847 92.7265 128.069 93.2291 128.511C93.7267 128.958 93.9875 129.614 94.011 130.479V135.51H92.542V130.998C92.542 130.468 92.4056 130.064 92.1329 129.787C91.8649 129.504 91.5193 129.363 91.0961 129.363C90.6729 129.363 90.325 129.504 90.0524 129.787C89.7749 130.064 89.6362 130.468 89.6362 130.998V135.51H88.1672V124.88Z" fill="#053641"/>
<path d="M96.2179 127.942H97.6869V135.51H96.2179V127.942ZM96.2179 124.88H97.6869V126.396H96.2179V124.88Z" fill="#053641"/>
<path d="M99.7482 127.942H101.217V128.744H101.245C101.729 128.146 102.363 127.847 103.147 127.847C103.753 127.847 104.307 128.069 104.81 128.511C105.308 128.958 105.568 129.614 105.592 130.479V135.51H104.123V130.998C104.123 130.468 103.987 130.064 103.714 129.787C103.446 129.504 103.1 129.363 102.677 129.363C102.254 129.363 101.906 129.504 101.633 129.787C101.356 130.064 101.217 130.468 101.217 130.998V135.51H99.7482V127.942Z" fill="#053641"/>
<path d="M108.962 131.733C108.962 132.314 108.981 132.714 109.018 132.933C109.051 133.162 109.129 133.352 109.251 133.504C109.35 133.64 109.5 133.764 109.703 133.877C109.895 134.013 110.135 134.082 110.422 134.082C110.709 134.082 110.949 134.013 111.141 133.877C111.334 133.764 111.48 133.64 111.579 133.504C111.701 133.352 111.783 133.162 111.825 132.933C111.854 132.714 111.868 132.314 111.868 131.733C111.868 131.143 111.854 130.734 111.825 130.504C111.783 130.275 111.701 130.09 111.579 129.948C111.48 129.812 111.334 129.678 111.141 129.546C110.949 129.434 110.709 129.373 110.422 129.363C110.135 129.373 109.895 129.434 109.703 129.546C109.5 129.678 109.35 129.812 109.251 129.948C109.129 130.09 109.051 130.275 109.018 130.504C108.981 130.734 108.962 131.143 108.962 131.733ZM111.868 134.72C111.384 135.286 110.755 135.578 109.98 135.597C109.506 135.587 109.111 135.483 108.796 135.283C108.468 135.094 108.216 134.89 108.043 134.671C107.85 134.423 107.711 134.119 107.627 133.759C107.538 133.404 107.493 132.728 107.493 131.73C107.493 130.714 107.538 130.026 107.627 129.666C107.711 129.311 107.85 129.012 108.043 128.768C108.216 128.532 108.468 128.319 108.796 128.13C109.111 127.951 109.506 127.857 109.98 127.847C110.708 127.847 111.337 128.146 111.868 128.744V127.942H113.337V135.327C113.318 136.465 113.001 137.301 112.386 137.835C111.767 138.384 111.025 138.659 110.161 138.659C109.171 138.64 108.326 138.218 107.627 137.393L108.768 136.455C108.956 136.635 109.172 136.789 109.416 136.916C109.665 137.058 109.923 137.134 110.191 137.143C110.694 137.143 111.098 136.999 111.403 136.711C111.703 136.418 111.858 136.013 111.868 135.496V134.72Z" fill="#053641"/>
<path d="M119.154 125.638H120.623V127.942H121.695V129.108H120.623V133.52C120.613 133.904 120.787 134.091 121.145 134.081H121.695V135.51H120.928C120.412 135.51 119.989 135.345 119.661 135.014C119.323 134.699 119.154 134.242 119.154 133.645V129.108H118.417V127.942H119.154V125.638Z" fill="#053641"/>
<path d="M123.209 124.88H124.678V128.744H124.706C125.19 128.146 125.823 127.847 126.608 127.847C127.214 127.847 127.768 128.069 128.27 128.511C128.768 128.958 129.029 129.614 129.052 130.479V135.51H127.583V130.998C127.583 130.468 127.447 130.064 127.174 129.787C126.906 129.504 126.561 129.363 126.138 129.363C125.714 129.363 125.366 129.504 125.094 129.787C124.816 130.064 124.678 130.468 124.678 130.998V135.51H123.209V124.88Z" fill="#053641"/>
<path d="M135.416 131.049C135.397 130.458 135.244 130.011 134.956 129.708C134.674 129.42 134.311 129.276 133.868 129.276C133.425 129.276 133.063 129.42 132.78 129.708C132.502 130.011 132.349 130.458 132.321 131.049H135.416ZM132.321 132.301C132.321 132.909 132.49 133.371 132.829 133.687C133.144 134.008 133.558 134.169 134.07 134.169C134.668 134.169 135.201 133.923 135.672 133.432L136.737 134.373C135.99 135.199 135.111 135.607 134.101 135.597C133.716 135.597 133.34 135.539 132.973 135.422C132.79 135.359 132.611 135.274 132.438 135.167C132.254 135.075 132.083 134.96 131.923 134.824C131.613 134.543 131.362 134.149 131.169 133.643C130.957 133.157 130.852 132.526 130.852 131.748C130.852 130.999 130.943 130.377 131.127 129.882C131.31 129.376 131.545 128.978 131.831 128.686C132.123 128.39 132.449 128.175 132.811 128.044C133.168 127.913 133.52 127.847 133.868 127.847C134.704 127.857 135.412 128.142 135.99 128.701C136.577 129.269 136.875 130.052 136.885 131.049V132.301H132.321Z" fill="#053641"/>
<path d="M149.308 132.54C149.082 133.525 148.652 134.282 148.017 134.811C147.364 135.335 146.59 135.597 145.697 135.597C144.889 135.578 144.214 135.374 143.674 134.985C143.124 134.611 142.725 134.178 142.476 133.687C142.401 133.527 142.333 133.374 142.272 133.228C142.216 133.077 142.168 132.888 142.131 132.659C142.06 132.231 142.025 131.41 142.025 130.195C142.025 128.961 142.06 128.134 142.131 127.716C142.206 127.298 142.321 126.961 142.476 126.703C142.725 126.212 143.125 125.775 143.675 125.39C144.215 125.002 144.89 124.802 145.699 124.793C146.69 124.802 147.499 125.106 148.124 125.703C148.749 126.304 149.144 127.049 149.308 127.937H147.656C147.529 127.509 147.298 127.143 146.964 126.842C146.615 126.554 146.192 126.406 145.693 126.396C145.325 126.406 145.01 126.481 144.747 126.622C144.478 126.769 144.261 126.951 144.097 127.17C143.895 127.399 143.76 127.694 143.694 128.054C143.619 128.434 143.581 129.148 143.581 130.195C143.581 131.242 143.619 131.951 143.694 132.321C143.76 132.691 143.895 132.991 144.097 133.22C144.262 133.439 144.478 133.617 144.747 133.753C145.011 133.914 145.326 133.994 145.694 133.994C146.57 133.994 147.224 133.509 147.658 132.54H149.308Z" fill="#053641"/>
<path d="M154.734 131.733C154.734 131.192 154.711 130.797 154.664 130.548C154.616 130.309 154.52 130.1 154.374 129.919C154.266 129.748 154.106 129.614 153.893 129.517C153.691 129.414 153.455 129.363 153.187 129.363C152.937 129.363 152.706 129.414 152.494 129.517C152.292 129.614 152.127 129.748 152 129.919C151.872 130.1 151.781 130.309 151.724 130.548C151.668 130.797 151.639 131.187 151.639 131.719C151.639 132.245 151.668 132.631 151.724 132.874C151.781 133.123 151.872 133.343 152 133.533C152.127 133.679 152.292 133.808 152.494 133.92C152.706 134.028 152.937 134.082 153.187 134.082C153.455 134.082 153.691 134.028 153.893 133.92C154.106 133.808 154.266 133.679 154.374 133.533C154.52 133.343 154.616 133.123 154.664 132.874C154.711 132.631 154.734 132.25 154.734 131.733ZM150.17 131.719C150.17 130.92 150.234 130.307 150.361 129.878C150.492 129.459 150.694 129.107 150.967 128.819C151.169 128.568 151.451 128.343 151.813 128.145C152.17 127.956 152.629 127.857 153.188 127.847C153.766 127.857 154.234 127.957 154.591 128.146C154.944 128.346 155.216 128.572 155.409 128.824C155.7 129.111 155.906 129.464 156.028 129.882C156.145 130.309 156.203 130.922 156.203 131.719C156.203 132.516 156.145 133.123 156.027 133.541C155.905 133.959 155.698 134.321 155.407 134.628C155.313 134.739 155.198 134.849 155.062 134.956C154.94 135.077 154.782 135.182 154.589 135.269C154.232 135.478 153.765 135.587 153.187 135.597C152.628 135.587 152.17 135.478 151.813 135.269C151.451 135.08 151.169 134.866 150.967 134.628C150.694 134.321 150.492 133.959 150.361 133.541C150.234 133.123 150.17 132.516 150.17 131.719Z" fill="#053641"/>
<path d="M157.928 127.942H159.4V128.744H159.428C159.928 128.146 160.586 127.847 161.401 127.847C161.925 127.857 162.348 127.947 162.668 128.117C162.983 128.307 163.272 128.547 163.534 128.839C164.126 128.168 164.92 127.838 165.915 127.847C166.541 127.847 167.114 128.069 167.633 128.511C168.147 128.958 168.414 129.614 168.434 130.479V135.51H166.963V130.998C166.963 130.468 166.822 130.064 166.541 129.787C166.26 129.504 165.897 129.363 165.452 129.363C165.008 129.363 164.643 129.504 164.356 129.787C164.065 130.064 163.919 130.468 163.919 130.998V135.51H162.45V130.998C162.45 130.468 162.309 130.064 162.028 129.787C161.742 129.504 161.376 129.363 160.932 129.363C160.488 129.363 160.125 129.504 159.843 129.787C159.547 130.064 159.399 130.468 159.399 130.998V135.51H157.928V127.942Z" fill="#053641"/>
<path d="M170.923 129.108H170.181V127.942H170.923V126.943C170.923 126.224 171.116 125.694 171.501 125.354C171.877 125.038 172.349 124.88 172.917 124.88H173.868V126.309H173.028C172.584 126.294 172.373 126.504 172.392 126.938V127.942H173.868V129.108H172.392V135.51H170.923V129.108Z" fill="#053641"/>
<path d="M179.032 131.733C179.032 131.192 179.008 130.797 178.961 130.548C178.914 130.309 178.818 130.1 178.671 129.919C178.563 129.748 178.403 129.614 178.191 129.517C177.988 129.414 177.753 129.363 177.484 129.363C177.235 129.363 177.004 129.414 176.792 129.517C176.589 129.614 176.425 129.748 176.297 129.919C176.17 130.1 176.078 130.309 176.022 130.548C175.965 130.797 175.937 131.187 175.937 131.719C175.937 132.245 175.965 132.631 176.022 132.874C176.078 133.123 176.17 133.343 176.297 133.533C176.425 133.679 176.589 133.808 176.792 133.92C177.004 134.028 177.235 134.082 177.484 134.082C177.753 134.082 177.988 134.028 178.191 133.92C178.403 133.808 178.563 133.679 178.671 133.533C178.818 133.343 178.914 133.123 178.961 132.874C179.008 132.631 179.032 132.25 179.032 131.733ZM174.468 131.719C174.468 130.92 174.531 130.307 174.658 129.878C174.79 129.459 174.992 129.107 175.265 128.819C175.467 128.568 175.749 128.343 176.111 128.145C176.468 127.956 176.926 127.857 177.486 127.847C178.064 127.857 178.531 127.957 178.889 128.146C179.241 128.346 179.514 128.572 179.707 128.824C179.997 129.111 180.203 129.464 180.325 129.882C180.442 130.309 180.501 130.922 180.501 131.719C180.501 132.516 180.442 133.123 180.325 133.541C180.202 133.959 179.996 134.321 179.705 134.628C179.61 134.739 179.495 134.849 179.359 134.956C179.237 135.077 179.079 135.182 178.887 135.269C178.53 135.478 178.062 135.587 177.484 135.597C176.925 135.587 176.467 135.478 176.11 135.269C175.748 135.08 175.466 134.866 175.264 134.628C174.992 134.321 174.79 133.959 174.658 133.541C174.531 133.123 174.468 132.516 174.468 131.719Z" fill="#053641"/>
<path d="M182.286 127.942H183.755V128.744H183.785C184.27 128.146 184.904 127.847 185.69 127.847C186.277 127.857 186.79 128.051 187.227 128.428L186.154 129.743C185.844 129.49 185.522 129.363 185.187 129.363C184.811 129.363 184.489 129.49 184.221 129.743C183.919 129.991 183.764 130.392 183.755 130.947V135.51H182.286V127.942Z" fill="#053641"/>
<path d="M188.174 125.638H189.643V127.942H190.715V129.108H189.643V133.52C189.634 133.904 189.808 134.091 190.165 134.081H190.715V135.51H189.948C189.432 135.51 189.01 135.345 188.681 135.014C188.343 134.699 188.174 134.242 188.174 133.645V129.108H187.437V127.942H188.174V125.638Z" fill="#053641"/>
<path d="M195.308 134.175L199.969 126.308H195.346V124.88H201.872V126.091L197.046 133.994H201.872V135.51H195.308V134.175Z" fill="#053641"/>
<path d="M207.741 131.733C207.741 131.192 207.717 130.797 207.67 130.548C207.623 130.309 207.526 130.1 207.38 129.919C207.272 129.748 207.112 129.614 206.9 129.517C206.697 129.414 206.462 129.363 206.193 129.363C205.943 129.363 205.713 129.414 205.501 129.517C205.298 129.614 205.133 129.748 205.006 129.919C204.879 130.1 204.787 130.309 204.731 130.548C204.674 130.797 204.646 131.187 204.646 131.719C204.646 132.245 204.674 132.631 204.731 132.874C204.787 133.123 204.879 133.343 205.006 133.533C205.133 133.679 205.298 133.808 205.501 133.92C205.713 134.028 205.943 134.082 206.193 134.082C206.462 134.082 206.697 134.028 206.9 133.92C207.112 133.808 207.272 133.679 207.38 133.533C207.526 133.343 207.623 133.123 207.67 132.874C207.717 132.631 207.741 132.25 207.741 131.733ZM203.177 131.719C203.177 130.92 203.24 130.307 203.367 129.878C203.499 129.459 203.701 129.107 203.973 128.819C204.175 128.568 204.458 128.343 204.819 128.145C205.177 127.956 205.635 127.857 206.194 127.847C206.772 127.857 207.24 127.957 207.598 128.146C207.95 128.346 208.223 128.572 208.415 128.824C208.706 129.111 208.912 129.464 209.034 129.882C209.151 130.309 209.21 130.922 209.21 131.719C209.21 132.516 209.151 133.123 209.033 133.541C208.911 133.959 208.705 134.321 208.413 134.628C208.319 134.739 208.204 134.849 208.068 134.956C207.946 135.077 207.788 135.182 207.596 135.269C207.238 135.478 206.771 135.587 206.193 135.597C205.634 135.587 205.176 135.478 204.819 135.269C204.457 135.08 204.175 134.866 203.973 134.628C203.701 134.321 203.498 133.959 203.367 133.541C203.24 133.123 203.177 132.516 203.177 131.719Z" fill="#053641"/>
<path d="M210.994 127.942H212.464V128.744H212.491C212.975 128.146 213.609 127.847 214.393 127.847C214.999 127.847 215.553 128.069 216.056 128.511C216.554 128.958 216.814 129.614 216.838 130.479V135.51H215.369V130.998C215.369 130.468 215.233 130.064 214.96 129.787C214.692 129.504 214.346 129.363 213.923 129.363C213.5 129.363 213.152 129.504 212.879 129.787C212.602 130.064 212.463 130.468 212.463 130.998V135.51H210.994V127.942Z" fill="#053641"/>
<path d="M223.201 131.049C223.182 130.458 223.029 130.011 222.742 129.708C222.459 129.42 222.097 129.276 221.654 129.276C221.211 129.276 220.848 129.42 220.566 129.708C220.288 130.011 220.135 130.458 220.106 131.049H223.201ZM220.106 132.301C220.106 132.909 220.276 133.371 220.614 133.687C220.929 134.008 221.343 134.169 221.856 134.169C222.453 134.169 222.987 133.923 223.457 133.432L224.523 134.373C223.776 135.199 222.897 135.607 221.887 135.597C221.501 135.597 221.125 135.539 220.759 135.422C220.575 135.359 220.397 135.274 220.223 135.167C220.04 135.075 219.868 134.96 219.709 134.824C219.399 134.543 219.147 134.149 218.954 133.643C218.743 133.157 218.637 132.526 218.637 131.748C218.637 130.999 218.729 130.377 218.912 129.882C219.095 129.376 219.33 128.978 219.617 128.686C219.908 128.39 220.235 128.175 220.597 128.044C220.954 127.913 221.306 127.847 221.654 127.847C222.49 127.857 223.197 128.142 223.775 128.701C224.363 129.269 224.661 130.052 224.67 131.049V132.301H220.106Z" fill="#053641"/>
<path fill-rule="evenodd" clip-rule="evenodd" d="M62.299 58.4817C65.9916 57.9983 71.6267 56.7956 71.9876 56.4958C95.7204 36.9516 69.2051 67.2422 95.2714 45.8731C106.393 36.7568 102.416 40.6013 111.153 48.0913C114.242 50.7442 117.583 43.7561 114.405 38.1694C114.313 38.0082 120.94 30.0647 121.035 30.001C120.954 29.394 123.61 43.1153 123.472 33.6131C123.471 33.5456 125.387 26.9359 126.601 26.8573C129.23 26.6887 125.492 24.3318 130.009 21.5029C131.095 20.8247 132.595 17.3774 132.861 16.7029C132.906 16.7705 139.771 22.9343 140.813 24.2008C141.945 25.5721 147.966 26.9736 147.743 31.7921C147.731 32.0582 149.961 36.8693 149.819 39.4285C149.698 41.6202 155.763 44.2321 157.986 49.7401C160.832 56.7992 157.217 43.0105 160.129 47.4543C162.498 51.0777 164.171 49.7662 168.145 55.649C168.584 56.2936 169.679 57.8146 170.368 58.4817H170.943C170.897 58.1595 170.702 57.5638 170.296 56.6007C169.636 55.0383 168.926 49.2417 168.063 48.7096C166.581 47.7991 160.87 44.082 160.889 42.8831C160.981 37.1352 168.355 46.9823 166.407 42.9242C162.673 35.1494 164.311 40.2002 162.234 39.0574C163.179 37.862 162.538 37.0903 162.802 36.3633C164.229 35.8874 164.475 36.5768 161.167 33.422C157.65 30.0722 162.229 28.5359 160.315 24.313C159.497 22.5109 162.495 22.6831 164.518 24.3282C165.556 25.1751 173.192 28.5398 178.197 30.6081C182.165 35.2505 186.859 38.3494 192.277 39.9042C188.144 37.5848 184.754 34.9995 182.106 32.1444C182.296 32.2081 182.434 32.2454 182.508 32.2604C188.369 33.2235 186.914 34.2988 190.399 36.2509C192.638 36.5545 197.299 42.1337 203.669 43.7487C207.039 44.6068 210.519 50.6617 214.152 53.2583C221.036 58.1708 216.338 55.6528 223.865 57.8522C224.605 58.0694 225.233 58.2793 225.786 58.4817H228.427C224.353 57.0841 221.807 53.5881 218.9 52.5802C213.173 50.6019 210.259 46.3266 206.555 42.1337C202.644 37.7047 197.092 38.1844 195.062 35.7226C193.667 34.029 185.516 29.6862 183.28 28.9518C183.224 28.8995 183.079 28.8693 182.986 28.8057C182.682 28.5996 182.534 28.5996 182.312 28.4761C181.802 28.1836 181.649 28.4835 181.098 28.4722C180.89 28.4722 180.193 28.03 180.171 27.9702C180.111 27.9364 179.839 27.8239 179.802 27.794C179.455 27.5019 178.541 26.8536 178.111 26.8085C177.805 26.7786 177.263 26.4115 177.04 26.3402C176.446 26.1453 176.267 25.6995 175.417 25.5533C174.751 25.4408 173.895 25.2199 173.314 24.8676C173.321 24.7965 166.242 22.8143 165.858 22.7133C165.788 22.698 165.626 22.6308 165.417 22.5371C163.935 20.8696 161.53 20.5287 159.665 19.4795C158.806 18.9999 155.403 20.8173 154.202 21.5965C153.572 22.0088 153.234 22.0013 152.823 22.3497C152.57 22.5632 150.764 23.3614 150.472 23.1065C150.218 22.8819 150.385 22.9605 150.129 22.9044C149.074 22.6719 149.302 23.2752 148.792 23.3463C147.883 23.47 148.269 23.605 147.807 23.766C147.042 24.0396 147.515 24.2308 146.712 24.2158C146.094 23.2865 144.348 23.0278 143.53 21.8028C143.349 21.5291 141.819 20.1616 141.33 20.1502C140.713 20.1428 138.956 18.3293 137.971 18.0032C137.962 17.9995 136.814 17.1902 136.752 17.1377C136.744 17.1302 135.877 16.7481 135.647 16.5382C135.337 16.2534 134.221 15.7962 133.354 15.5601C132.974 15.3391 132.592 15.1519 132.231 15.0656C130.932 14.7471 130.796 13.9977 129.86 14.4099C127.973 15.2306 128.394 14.882 126.372 16.2047C126.181 16.1785 125.126 16.3884 125.024 16.4894C124.483 17.0103 124.085 17.6211 123.483 17.6097C122.402 17.5911 122.746 17.8272 121.52 18.4679C120.484 19.0188 120.277 19.4196 119.143 19.8918C118.64 20.1053 117.451 21.2257 116.948 21.1731C116.646 21.3567 116.143 20.9408 115.551 21.8551C115.444 22.0199 114.776 22.0013 114.155 22.7805C114.129 22.8143 113.493 23.1253 113.319 23.3053C112.249 24.4031 112.826 23.7287 112.342 24.002C111.661 24.3919 110.941 24.8189 110.216 25.1038C108.778 25.6583 108.84 26.0742 108.147 26.4826C107.23 27.0259 107.171 27.3444 105.996 27.7528C105.363 27.9777 103.283 29.6151 102.596 29.7388C101.935 29.8512 99.5036 32.1368 98.5485 32.5528C98.4738 32.5902 98.2438 32.7625 98.1783 32.8225C96.7725 32.9912 96.2972 33.954 95.0927 34.5311C94.5428 34.7933 94.4213 35.1345 93.7423 35.3217C92.7778 35.5802 91.3815 37.0078 90.9804 37.1426C90.1684 37.4236 88.8515 38.6565 88.1043 38.5853C88.093 38.5814 85.8586 39.8405 85.7969 39.9305C85.7354 40.0167 85.6558 40.0466 85.6595 40.1291C84.8363 40.7736 85.3696 39.642 83.7946 41.5118C82.7862 42.7069 80.1714 43.5088 78.5066 45.3598C78.1362 45.7719 77.9791 44.7791 76.1468 47.5143C74.5203 49.9388 73.0481 49.6276 70.9964 51.2687C69.4614 52.494 68.4308 51.9657 66.1169 53.8168C64.5306 55.0832 62.7827 56.1699 61.0327 57.1028C60.3527 57.4699 59.8009 58.2568 59.1182 58.4817H62.299Z" fill="#053641"/>
<path fill-rule="evenodd" clip-rule="evenodd" d="M251.665 110.651C177.591 112.62 103.372 112.62 29.2892 110.651C103.393 109.521 177.557 109.521 251.665 110.651Z" fill="#053641"/>
<path fill-rule="evenodd" clip-rule="evenodd" d="M241.616 136.123C237.304 133.411 233.854 129.848 231.279 125.447C235.222 128.521 238.67 132.081 241.616 136.123Z" fill="#053641"/>
<path fill-rule="evenodd" clip-rule="evenodd" d="M230.188 136.123C233.134 132.081 236.582 128.521 240.525 125.447C237.95 129.848 234.5 133.411 230.188 136.123Z" fill="#053641"/>
<path fill-rule="evenodd" clip-rule="evenodd" d="M58.9868 136.123C54.6741 133.411 51.2241 129.848 48.6496 125.447C52.5926 128.521 56.0401 132.081 58.9868 136.123Z" fill="#053641"/>
<path fill-rule="evenodd" clip-rule="evenodd" d="M47.5579 136.123C50.5046 132.081 53.9521 128.521 57.8951 125.447C55.3206 129.848 51.8706 133.411 47.5579 136.123Z" fill="#053641"/>
</g>
</svg>
