<?xml version="1.0" encoding="UTF-8" standalone="no"?>
<!-- Created with Inkscape (http://www.inkscape.org/) -->

<svg
   version="1.1"
   id="svg2"
   width="2560"
   height="1440"
   viewBox="0 0 2560 1440"
   sodipodi:docname="Rainydays.ai"
   xmlns:inkscape="http://www.inkscape.org/namespaces/inkscape"
   xmlns:sodipodi="http://sodipodi.sourceforge.net/DTD/sodipodi-0.dtd"
   xmlns="http://www.w3.org/2000/svg"
   xmlns:svg="http://www.w3.org/2000/svg">
  <defs
     id="defs6">
    <clipPath
       clipPathUnits="userSpaceOnUse"
       id="clipPath16">
      <path
         d="M 0,1080 H 1920 V 0 H 0 Z"
         id="path14" />
    </clipPath>
  </defs>
  <sodipodi:namedview
     id="namedview4"
     pagecolor="#ffffff"
     bordercolor="#000000"
     borderopacity="0.25"
     inkscape:showpageshadow="2"
     inkscape:pageopacity="0.0"
     inkscape:pagecheckerboard="0"
     inkscape:deskcolor="#d1d1d1" />
  <g
     id="g8"
     inkscape:groupmode="layer"
     inkscape:label="Rainydays"
     transform="matrix(1.3333333,0,0,-1.3333333,0,1440)">
    <g
       id="g10">
      <g
         id="g12"
         clip-path="url(#clipPath16)">
        <g
           id="g18"
           transform="translate(205.8882,620.0801)">
          <path
             d="m 0,0 v -76.034 h 19.865 c 6.165,0 11.072,0.856 14.727,2.568 3.65,1.713 6.508,4.164 8.563,7.364 1.825,3.195 3.082,7.134 3.767,11.816 0.685,4.678 1.028,10.104 1.028,16.269 0,6.165 -0.343,11.586 -1.028,16.268 -0.685,4.678 -2.055,8.734 -4.109,12.159 C 38.472,-3.2 30.252,0 18.152,0 Z M -34.935,-210.979 V 32.88 h 56.17 c 41.1,0 61.65,-23.862 61.65,-71.582 0,-14.385 -2.227,-26.603 -6.679,-36.648 C 71.753,-85.399 63.93,-93.502 52.745,-99.667 L 90.419,-210.979 H 53.43 l -32.537,104.12 H 0 v -104.12 z"
             style="fill:#053641;fill-opacity:1;fill-rule:nonzero;stroke:none"
             id="path20" />
        </g>
        <g
           id="g22"
           transform="translate(438.7852,494.3838)">
          <path
             d="M 0,0 -17.125,88.364 H -17.81 L -34.935,0 Z m -86.31,-85.282 54.457,243.858 H -2.74 L 51.717,-85.282 H 16.782 L 6.507,-32.88 H -41.1 l -10.275,-52.402 z"
             style="fill:#053641;fill-opacity:1;fill-rule:nonzero;stroke:none"
             id="path24" />
        </g>
        <path
           d="m 560.028,652.96 h 34.935 V 409.102 h -34.935 z"
           style="fill:#053641;fill-opacity:1;fill-rule:nonzero;stroke:none"
           id="path26" />
        <g
           id="g28"
           transform="translate(678.8735,409.1016)">
          <path
             d="M 0,0 V 243.858 H 33.565 L 86.31,96.927 h 0.685 v 146.931 h 34.934 V 0 H 89.049 L 35.62,146.589 H 34.935 V 0 Z"
             style="fill:#053641;fill-opacity:1;fill-rule:nonzero;stroke:none"
             id="path30" />
        </g>
        <g
           id="g32"
           transform="translate(916.2192,409.1016)">
          <path
             d="m 0,0 v 103.092 l -47.95,140.766 h 36.99 l 28.085,-96.926 h 0.685 l 28.085,96.926 H 82.884 L 34.935,103.092 V 0 Z"
             style="fill:#053641;fill-opacity:1;fill-rule:nonzero;stroke:none"
             id="path34" />
        </g>
        <g
           id="g36"
           transform="translate(1102.876,620.0801)">
          <path
             d="m 0,0 v -178.099 h 16.097 c 9.815,0 16.783,2.452 20.892,7.364 4.111,4.907 6.165,12.614 6.165,23.119 V -30.14 c 0,9.59 -1.942,17.008 -5.822,22.263 C 33.446,-2.627 26.372,0 16.097,0 Z M -34.936,-210.979 V 32.88 h 51.718 c 20.09,0 35.331,-5.48 45.724,-16.44 10.387,-10.96 15.583,-26.49 15.583,-46.58 v -114.051 c 0,-22.835 -5.538,-39.676 -16.61,-50.519 -11.079,-10.848 -27.004,-16.269 -47.78,-16.269 z"
             style="fill:#053641;fill-opacity:1;fill-rule:nonzero;stroke:none"
             id="path38" />
        </g>
        <g
           id="g40"
           transform="translate(1331.6641,494.3838)">
          <path
             d="M 0,0 -17.125,88.364 H -17.81 L -34.935,0 Z m -86.31,-85.282 54.458,243.858 H -2.739 L 51.718,-85.282 H 16.782 L 6.508,-32.88 H -41.1 l -10.274,-52.402 z"
             style="fill:#053641;fill-opacity:1;fill-rule:nonzero;stroke:none"
             id="path42" />
        </g>
        <g
           id="g44"
           transform="translate(1465.583,409.1016)">
          <path
             d="m 0,0 v 103.092 l -47.95,140.766 h 36.99 l 28.085,-96.926 h 0.685 l 28.085,96.926 H 82.884 L 34.935,103.092 V 0 Z"
             style="fill:#053641;fill-opacity:1;fill-rule:nonzero;stroke:none"
             id="path46" />
        </g>
        <g
           id="g48"
           transform="translate(1730.3291,582.748)">
          <path
             d="m 0,0 h -34.935 v 7.877 c 0,7.99 -1.883,14.899 -5.651,20.722 -3.768,5.822 -10.103,8.733 -19.009,8.733 -4.795,0 -8.679,-0.915 -11.644,-2.74 -2.97,-1.83 -5.367,-4.11 -7.193,-6.85 -1.83,-2.97 -3.083,-6.336 -3.767,-10.103 -0.685,-3.768 -1.028,-7.707 -1.028,-11.817 0,-4.795 0.171,-8.792 0.514,-11.987 0.343,-3.2 1.198,-6.053 2.568,-8.563 1.371,-2.515 3.367,-4.682 5.995,-6.507 2.622,-1.83 6.218,-3.655 10.789,-5.48 l 26.715,-10.618 c 7.758,-2.969 14.042,-6.453 18.836,-10.445 4.795,-3.998 8.563,-8.621 11.303,-13.871 2.51,-5.481 4.222,-11.705 5.137,-18.666 0.91,-6.968 1.37,-14.9 1.37,-23.804 0,-10.276 -1.027,-19.812 -3.082,-28.599 -2.055,-8.793 -5.368,-16.268 -9.933,-22.433 -4.795,-6.396 -11.077,-11.42 -18.837,-15.071 -7.765,-3.649 -17.243,-5.479 -28.427,-5.479 -8.45,0 -16.327,1.487 -23.633,4.452 -7.31,2.965 -13.587,7.075 -18.837,12.33 -5.255,5.25 -9.419,11.356 -12.501,18.323 -3.083,6.963 -4.624,14.557 -4.624,22.777 v 13.014 h 34.935 v -10.96 c 0,-6.394 1.883,-12.158 5.651,-17.296 3.767,-5.137 10.103,-7.706 19.009,-7.706 5.934,0 10.558,0.857 13.871,2.569 3.307,1.713 5.876,4.164 7.706,7.364 1.825,3.194 2.911,7.021 3.254,11.474 0.343,4.452 0.513,9.419 0.513,14.898 0,6.39 -0.23,11.645 -0.684,15.755 -0.461,4.11 -1.37,7.417 -2.74,9.933 -1.601,2.509 -3.714,4.564 -6.336,6.165 -2.628,1.594 -6.112,3.306 -10.447,5.137 l -25.003,10.275 c -15.069,6.165 -25.172,14.326 -30.31,24.489 -5.138,10.157 -7.706,22.888 -7.706,38.188 0,9.129 1.252,17.81 3.767,26.03 2.51,8.219 6.278,15.294 11.302,21.235 4.795,5.934 10.902,10.671 18.324,14.213 7.417,3.538 16.269,5.309 26.543,5.309 8.675,0 16.612,-1.6 23.804,-4.795 7.192,-3.2 13.411,-7.423 18.666,-12.672 C -5.255,43.84 0,31.28 0,17.125 Z"
             style="fill:#053641;fill-opacity:1;fill-rule:nonzero;stroke:none"
             id="path50" />
        </g>
        <g
           id="g52"
           transform="translate(445.2202,203.542)">
          <path
             d="m 0,0 h 15.618 c 3.916,0.065 6.861,1.318 8.836,3.758 1.879,2.372 2.818,5.009 2.818,7.909 0,2.406 -0.382,4.433 -1.147,6.081 -0.796,1.483 -1.91,2.653 -3.343,3.511 -2.165,1.416 -4.681,2.092 -7.546,2.026 H 0 Z M -10.522,33.517 H 14.67 c 2.735,0 5.375,-0.263 7.92,-0.788 2.544,-0.689 5.121,-2.099 7.729,-4.231 2.19,-1.607 3.967,-3.904 5.332,-6.889 1.429,-2.887 2.143,-6.298 2.143,-10.235 0,-5.314 -1.814,-10.152 -5.44,-14.516 -3.723,-4.592 -9.163,-6.955 -16.321,-7.085 H 0 v -28.005 h -10.522 z"
             style="fill:#053641;fill-opacity:1;fill-rule:nonzero;stroke:none"
             id="path54" />
        </g>
        <g
           id="g56"
           transform="translate(493.5542,216.3906)">
          <path
             d="m 0,0 h 9.931 v -30.452 c 0,-3.449 0.938,-6.144 2.814,-8.081 1.843,-1.939 4.195,-2.907 7.056,-2.907 2.861,0 5.197,0.968 7.009,2.907 1.844,1.937 2.766,4.632 2.766,8.081 V 0 h 9.931 v -51.081 h -9.932 v 5.462 h -0.19 c -3.271,-4.035 -7.541,-6.053 -12.811,-6.053 -4.096,0.067 -7.795,1.606 -11.097,4.617 -3.588,2.948 -5.414,7.302 -5.477,13.066 z"
             style="fill:#053641;fill-opacity:1;fill-rule:nonzero;stroke:none"
             id="path58" />
        </g>
        <g
           id="g60"
           transform="translate(549.1284,180.9102)">
          <path
             d="m 0,0 c 4.046,-4.367 9.272,-6.551 15.677,-6.551 2.867,0 5.209,0.574 7.026,1.723 1.816,1.148 2.724,2.756 2.724,4.823 0,1.837 -0.542,3.116 -1.624,3.839 -1.115,0.755 -2.595,1.165 -4.442,1.23 l -8.787,0.789 c -4.171,0.393 -7.562,1.836 -10.173,4.33 -2.674,2.428 -4.044,5.824 -4.107,10.188 0.063,5.249 1.86,9.186 5.39,11.812 3.435,2.625 7.792,3.937 13.071,3.937 2.29,0 4.34,-0.147 6.154,-0.443 1.812,-0.327 3.513,-0.786 5.104,-1.377 3.052,-1.279 5.787,-3 8.205,-5.164 L 28.056,21.71 c -1.912,1.424 -3.934,2.6 -6.067,3.527 -2.102,0.827 -4.522,1.242 -7.261,1.242 -3.121,0 -5.303,-0.575 -6.544,-1.724 C 6.878,23.604 6.225,22.126 6.225,20.32 6.159,19.17 6.653,18.168 7.706,17.314 c 0.955,-0.953 2.642,-1.56 5.062,-1.823 l 8.214,-0.64 c 5.158,-0.395 8.884,-2.004 11.177,-4.829 2.133,-2.759 3.199,-6.258 3.199,-10.495 -0.064,-4.961 -2.019,-8.787 -5.864,-11.481 -3.816,-2.759 -8.696,-4.171 -14.639,-4.237 -8.075,0 -15.338,3.049 -21.791,9.148 z"
             style="fill:#053641;fill-opacity:1;fill-rule:nonzero;stroke:none"
             id="path62" />
        </g>
        <g
           id="g64"
           transform="translate(596.0601,237.0586)">
          <path
             d="m 0,0 h 9.932 v -26.081 h 0.19 c 3.27,4.035 7.556,6.053 12.858,6.053 4.096,0 7.843,-1.493 11.241,-4.479 3.364,-3.018 5.127,-7.447 5.286,-13.287 v -33.955 h -9.931 v 30.451 c 0,3.58 -0.922,6.307 -2.766,8.18 -1.812,1.905 -4.148,2.858 -7.009,2.858 -2.861,0 -5.213,-0.953 -7.056,-2.858 -1.876,-1.873 -2.814,-4.6 -2.814,-8.18 V -71.749 H 0 Z"
             style="fill:#053641;fill-opacity:1;fill-rule:nonzero;stroke:none"
             id="path66" />
        </g>
        <path
           d="m 650.487,216.391 h 9.931 V 165.31 h -9.931 z m 0,20.668 h 9.931 v -10.231 h -9.931 z"
           style="fill:#053641;fill-opacity:1;fill-rule:nonzero;stroke:none"
           id="path68" />
        <g
           id="g70"
           transform="translate(674.354,216.3906)">
          <path
             d="m 0,0 h 9.932 v -5.413 h 0.19 c 3.27,4.035 7.556,6.053 12.858,6.053 4.096,0 7.843,-1.494 11.241,-4.479 3.364,-3.018 5.127,-7.447 5.286,-13.287 v -33.955 h -9.931 v 30.451 c 0,3.58 -0.922,6.307 -2.766,8.18 -1.812,1.905 -4.148,2.858 -7.009,2.858 -2.861,0 -5.213,-0.953 -7.056,-2.858 -1.876,-1.873 -2.814,-4.6 -2.814,-8.18 V -51.081 H 0 Z"
             style="fill:#053641;fill-opacity:1;fill-rule:nonzero;stroke:none"
             id="path72" />
        </g>
        <g
           id="g74"
           transform="translate(736.6455,190.8008)">
          <path
             d="m 0,0 c 0,-3.918 0.127,-6.617 0.381,-8.099 0.223,-1.547 0.747,-2.831 1.574,-3.851 0.667,-0.922 1.684,-1.761 3.051,-2.518 1.303,-0.922 2.925,-1.383 4.864,-1.383 1.939,0 3.56,0.461 4.863,1.383 1.303,0.757 2.288,1.596 2.957,2.518 0.826,1.02 1.382,2.304 1.668,3.851 0.191,1.482 0.287,4.181 0.287,8.099 0,3.982 -0.096,6.748 -0.287,8.295 -0.286,1.547 -0.842,2.798 -1.668,3.753 -0.669,0.921 -1.654,1.827 -2.957,2.716 C 13.43,15.521 11.809,15.932 9.87,15.998 7.931,15.932 6.309,15.521 5.006,14.764 3.639,13.875 2.622,12.969 1.955,12.048 1.128,11.093 0.604,9.842 0.381,8.295 0.127,6.748 0,3.982 0,0 m 19.645,-20.159 c -3.271,-3.819 -7.526,-5.792 -12.765,-5.923 -3.206,0.066 -5.873,0.771 -8,2.118 -2.223,1.28 -3.922,2.658 -5.097,4.137 -1.302,1.674 -2.238,3.725 -2.809,6.155 -0.604,2.397 -0.905,6.96 -0.905,13.691 0,6.861 0.301,11.506 0.905,13.936 0.571,2.397 1.507,4.416 2.809,6.058 1.175,1.598 2.874,3.034 5.097,4.307 2.127,1.207 4.794,1.844 8,1.909 4.921,0 9.177,-2.017 12.765,-6.052 v 5.413 h 9.931 V -24.261 C 29.448,-31.937 27.307,-37.58 23.15,-41.189 18.961,-44.896 13.947,-46.75 8.107,-46.75 1.412,-46.619 -4.3,-43.771 -9.028,-38.204 l 7.716,6.335 c 1.27,-1.22 2.73,-2.259 4.382,-3.116 1.682,-0.956 3.428,-1.468 5.238,-1.534 3.398,0 6.129,0.973 8.193,2.916 2.032,1.978 3.08,4.713 3.144,8.207 z"
             style="fill:#053641;fill-opacity:1;fill-rule:nonzero;stroke:none"
             id="path76" />
        </g>
        <g
           id="g78"
           transform="translate(805.5493,231.9404)">
          <path
             d="m 0,0 h 9.932 v -15.55 h 7.246 v -7.869 H 9.932 V -53.2 c -0.067,-2.593 1.11,-3.857 3.527,-3.79 h 3.719 v -9.641 h -5.186 c -3.491,0 -6.346,1.114 -8.565,3.343 C 1.142,-61.157 0,-58.077 0,-54.046 v 30.627 h -4.986 v 7.869 H 0 Z"
             style="fill:#053641;fill-opacity:1;fill-rule:nonzero;stroke:none"
             id="path80" />
        </g>
        <g
           id="g82"
           transform="translate(832.96,237.0586)">
          <path
             d="m 0,0 h 9.932 v -26.081 h 0.19 c 3.27,4.035 7.556,6.053 12.858,6.053 4.096,0 7.843,-1.493 11.241,-4.479 3.364,-3.018 5.127,-7.447 5.286,-13.287 v -33.955 h -9.931 v 30.451 c 0,3.58 -0.922,6.307 -2.766,8.18 -1.812,1.905 -4.148,2.858 -7.009,2.858 -2.861,0 -5.213,-0.953 -7.056,-2.858 -1.876,-1.873 -2.814,-4.6 -2.814,-8.18 V -71.749 H 0 Z"
             style="fill:#053641;fill-opacity:1;fill-rule:nonzero;stroke:none"
             id="path84" />
        </g>
        <g
           id="g86"
           transform="translate(915.4863,195.4219)">
          <path
             d="m 0,0 c -0.127,3.989 -1.163,7.006 -3.105,9.05 -1.912,1.945 -4.363,2.918 -7.357,2.918 -2.994,0 -5.446,-0.973 -7.357,-2.918 C -19.698,7.006 -20.733,3.989 -20.924,0 Z m -20.924,-8.455 c 0,-4.105 1.144,-7.223 3.434,-9.357 2.13,-2.167 4.928,-3.25 8.394,-3.25 4.039,0 7.647,1.658 10.827,4.974 l 7.202,-6.351 c -5.051,-5.575 -10.991,-8.33 -17.821,-8.264 -2.605,0 -5.147,0.393 -7.624,1.182 -1.24,0.425 -2.446,1 -3.621,1.721 -1.24,0.623 -2.399,1.395 -3.479,2.314 -2.096,1.902 -3.796,4.559 -5.098,7.971 -1.431,3.281 -2.145,7.546 -2.145,12.795 0,5.052 0.619,9.252 1.858,12.598 1.238,3.412 2.827,6.102 4.765,8.071 1.969,2 4.176,3.445 6.623,4.33 2.414,0.886 4.796,1.329 7.147,1.329 C -4.808,21.542 -0.028,19.623 3.88,15.849 7.851,12.01 9.868,6.727 9.931,0 v -8.455 z"
             style="fill:#053641;fill-opacity:1;fill-rule:nonzero;stroke:none"
             id="path88" />
        </g>
        <g
           id="g90"
           transform="translate(1009.4082,185.3545)">
          <path
             d="m 0,0 c -1.527,-6.649 -4.436,-11.759 -8.727,-15.329 -4.419,-3.538 -9.648,-5.307 -15.687,-5.307 -5.465,0.132 -10.024,1.509 -13.676,4.134 -3.717,2.526 -6.416,5.445 -8.099,8.76 -0.508,1.083 -0.969,2.116 -1.381,3.1 -0.381,1.017 -0.701,2.296 -0.954,3.838 -0.477,2.887 -0.714,8.432 -0.714,16.634 0,8.332 0.238,13.909 0.715,16.732 0.507,2.821 1.287,5.1 2.335,6.839 1.684,3.314 4.385,6.266 8.104,8.859 3.652,2.624 8.213,3.969 13.68,4.035 6.705,-0.066 12.17,-2.113 16.396,-6.143 C -3.781,42.091 -1.113,37.063 0,31.068 h -11.172 c -0.859,2.893 -2.418,5.359 -4.678,7.397 -2.355,1.939 -5.218,2.942 -8.593,3.008 -2.483,-0.066 -4.614,-0.576 -6.397,-1.529 -1.814,-0.986 -3.279,-2.218 -4.392,-3.698 -1.368,-1.546 -2.276,-3.535 -2.721,-5.968 -0.51,-2.564 -0.764,-7.381 -0.764,-14.448 0,-7.069 0.254,-11.852 0.764,-14.351 0.445,-2.499 1.353,-4.52 2.723,-6.066 1.115,-1.479 2.578,-2.68 4.394,-3.6 1.783,-1.084 3.916,-1.626 6.4,-1.626 5.922,0 10.348,3.27 13.278,9.813 z"
             style="fill:#053641;fill-opacity:1;fill-rule:nonzero;stroke:none"
             id="path92" />
        </g>
        <g
           id="g94"
           transform="translate(1046.0918,190.8008)">
          <path
             d="m 0,0 c 0,3.653 -0.159,6.319 -0.478,7.999 -0.319,1.613 -0.971,3.028 -1.959,4.247 -0.732,1.151 -1.814,2.057 -3.248,2.716 -1.37,0.69 -2.962,1.036 -4.777,1.036 -1.688,0 -3.249,-0.346 -4.682,-1.037 -1.37,-0.658 -2.483,-1.564 -3.343,-2.715 -0.861,-1.219 -1.482,-2.635 -1.863,-4.247 -0.383,-1.68 -0.574,-4.312 -0.574,-7.9 0,-3.556 0.191,-6.157 0.574,-7.802 0.381,-1.68 1.002,-3.16 1.863,-4.444 0.86,-0.988 1.973,-1.861 3.343,-2.617 1.433,-0.724 2.994,-1.087 4.682,-1.087 1.815,0 3.407,0.363 4.777,1.087 1.434,0.756 2.516,1.629 3.248,2.617 0.988,1.284 1.64,2.764 1.959,4.444 C -0.159,-6.058 0,-3.489 0,0 m -30.855,0.099 c 0,5.389 0.429,9.53 1.288,12.422 0.888,2.827 2.255,5.209 4.098,7.149 1.366,1.696 3.274,3.215 5.72,4.553 2.415,1.272 5.514,1.941 9.296,2.006 3.908,-0.066 7.07,-0.738 9.486,-2.017 2.383,-1.346 4.226,-2.871 5.529,-4.577 1.963,-1.936 3.357,-4.315 4.181,-7.136 0.792,-2.887 1.189,-7.02 1.189,-12.4 0,-5.381 -0.398,-9.482 -1.192,-12.303 -0.826,-2.822 -2.223,-5.266 -4.192,-7.333 -0.637,-0.755 -1.414,-1.493 -2.336,-2.214 -0.825,-0.82 -1.89,-1.525 -3.192,-2.116 -2.415,-1.411 -5.575,-2.149 -9.482,-2.215 -3.78,0.066 -6.877,0.804 -9.291,2.215 -2.446,1.279 -4.352,2.722 -5.718,4.33 -1.842,2.067 -3.209,4.511 -4.097,7.333 -0.859,2.821 -1.287,6.922 -1.287,12.303"
             style="fill:#053641;fill-opacity:1;fill-rule:nonzero;stroke:none"
             id="path96" />
        </g>
        <g
           id="g98"
           transform="translate(1067.6855,216.3906)">
          <path
             d="m 0,0 h 9.95 v -5.413 h 0.191 c 3.38,4.035 7.825,6.053 13.338,6.053 3.542,-0.067 6.397,-0.673 8.563,-1.822 2.132,-1.279 4.084,-2.903 5.856,-4.872 4.003,4.528 9.368,6.759 16.094,6.694 4.233,0 8.104,-1.494 11.614,-4.479 3.479,-3.018 5.284,-7.447 5.415,-13.287 V -51.081 H 61.08 v 30.451 c 0,3.58 -0.952,6.307 -2.854,8.18 -1.903,1.905 -4.357,2.858 -7.36,2.858 -3.005,0 -5.474,-0.953 -7.411,-2.858 -1.97,-1.873 -2.954,-4.6 -2.954,-8.18 v -30.451 h -9.932 v 30.451 c 0,3.58 -0.952,6.307 -2.854,8.18 -1.936,1.905 -4.405,2.858 -7.409,2.858 -3.005,0 -5.458,-0.953 -7.361,-2.858 -2.003,-1.873 -3.004,-4.6 -3.004,-8.18 V -51.081 H 0 Z"
             style="fill:#053641;fill-opacity:1;fill-rule:nonzero;stroke:none"
             id="path100" />
        </g>
        <g
           id="g102"
           transform="translate(1155.5361,208.5215)">
          <path
             d="M 0,0 H -5.018 V 7.869 H 0 v 6.741 c 0,4.856 1.302,8.432 3.905,10.729 2.541,2.132 5.733,3.198 9.576,3.198 h 6.431 V 18.896 H 14.229 C 11.231,18.995 9.8,17.577 9.931,14.644 V 7.869 h 9.981 V 0 H 9.931 V -43.212 H 0 Z"
             style="fill:#053641;fill-opacity:1;fill-rule:nonzero;stroke:none"
             id="path104" />
        </g>
        <g
           id="g106"
           transform="translate(1210.3564,190.8008)">
          <path
             d="m 0,0 c 0,3.653 -0.159,6.319 -0.478,7.999 -0.319,1.613 -0.971,3.028 -1.959,4.247 -0.732,1.151 -1.814,2.057 -3.248,2.716 -1.37,0.69 -2.962,1.036 -4.777,1.036 -1.688,0 -3.249,-0.346 -4.682,-1.037 -1.37,-0.658 -2.483,-1.564 -3.343,-2.715 -0.861,-1.219 -1.482,-2.635 -1.863,-4.247 -0.383,-1.68 -0.574,-4.312 -0.574,-7.9 0,-3.556 0.191,-6.157 0.574,-7.802 0.381,-1.68 1.002,-3.16 1.863,-4.444 0.86,-0.988 1.973,-1.861 3.343,-2.617 1.433,-0.724 2.994,-1.087 4.682,-1.087 1.815,0 3.407,0.363 4.777,1.087 1.434,0.756 2.516,1.629 3.248,2.617 0.988,1.284 1.64,2.764 1.959,4.444 C -0.159,-6.058 0,-3.489 0,0 m -30.855,0.099 c 0,5.389 0.429,9.53 1.288,12.422 0.888,2.827 2.255,5.209 4.098,7.149 1.366,1.696 3.274,3.215 5.72,4.553 2.415,1.272 5.514,1.941 9.296,2.006 3.908,-0.066 7.07,-0.738 9.486,-2.017 2.383,-1.346 4.226,-2.871 5.529,-4.577 1.963,-1.936 3.357,-4.315 4.181,-7.136 0.792,-2.887 1.189,-7.02 1.189,-12.4 0,-5.381 -0.398,-9.482 -1.192,-12.303 -0.826,-2.822 -2.223,-5.266 -4.192,-7.333 -0.637,-0.755 -1.414,-1.493 -2.336,-2.214 -0.825,-0.82 -1.89,-1.525 -3.192,-2.116 -2.415,-1.411 -5.575,-2.149 -9.482,-2.215 -3.78,0.066 -6.877,0.804 -9.291,2.215 -2.446,1.279 -4.352,2.722 -5.718,4.33 -1.842,2.067 -3.209,4.511 -4.097,7.333 -0.859,2.821 -1.287,6.922 -1.287,12.303"
             style="fill:#053641;fill-opacity:1;fill-rule:nonzero;stroke:none"
             id="path108" />
        </g>
        <g
           id="g110"
           transform="translate(1232.3535,216.3906)">
          <path
             d="m 0,0 h 9.932 v -5.413 h 0.207 c 3.274,4.035 7.565,6.053 12.875,6.053 3.973,-0.067 7.438,-1.374 10.394,-3.923 l -7.253,-8.875 c -2.099,1.711 -4.278,2.566 -6.537,2.566 -2.545,0 -4.724,-0.854 -6.537,-2.562 -2.036,-1.676 -3.087,-4.386 -3.149,-8.13 V -51.081 H 0 Z"
             style="fill:#053641;fill-opacity:1;fill-rule:nonzero;stroke:none"
             id="path112" />
        </g>
        <g
           id="g114"
           transform="translate(1272.165,231.9404)">
          <path
             d="m 0,0 h 9.931 v -15.55 h 7.247 v -7.869 H 9.931 V -53.2 c -0.066,-2.593 1.11,-3.857 3.528,-3.79 h 3.719 v -9.641 h -5.187 c -3.49,0 -6.345,1.114 -8.565,3.343 C 1.142,-61.157 0,-58.077 0,-54.046 v 30.627 h -4.986 v 7.869 H 0 Z"
             style="fill:#053641;fill-opacity:1;fill-rule:nonzero;stroke:none"
             id="path116" />
        </g>
        <g
           id="g118"
           transform="translate(1320.3916,174.3164)">
          <path
             d="M 0,0 31.509,53.102 H 0.261 v 9.64 H 44.379 V 54.566 L 11.753,1.225 H 44.379 V -9.007 L 0,-9.007 Z"
             style="fill:#053641;fill-opacity:1;fill-rule:nonzero;stroke:none"
             id="path120" />
        </g>
        <g
           id="g122"
           transform="translate(1404.4434,190.8008)">
          <path
             d="m 0,0 c 0,3.653 -0.159,6.319 -0.478,7.999 -0.319,1.613 -0.971,3.028 -1.959,4.247 -0.732,1.151 -1.814,2.057 -3.248,2.716 -1.37,0.69 -2.962,1.036 -4.777,1.036 -1.688,0 -3.249,-0.346 -4.682,-1.037 -1.37,-0.658 -2.483,-1.564 -3.343,-2.715 -0.861,-1.219 -1.482,-2.635 -1.863,-4.247 -0.383,-1.68 -0.574,-4.312 -0.574,-7.9 0,-3.556 0.191,-6.157 0.574,-7.802 0.381,-1.68 1.002,-3.16 1.863,-4.444 0.86,-0.988 1.973,-1.861 3.343,-2.617 1.433,-0.724 2.994,-1.087 4.682,-1.087 1.815,0 3.407,0.363 4.777,1.087 1.434,0.756 2.516,1.629 3.248,2.617 0.988,1.284 1.64,2.764 1.959,4.444 C -0.159,-6.058 0,-3.489 0,0 m -30.855,0.099 c 0,5.389 0.429,9.53 1.288,12.422 0.888,2.827 2.255,5.209 4.098,7.149 1.366,1.696 3.274,3.215 5.72,4.553 2.415,1.272 5.514,1.941 9.296,2.006 3.908,-0.066 7.07,-0.738 9.486,-2.017 2.383,-1.346 4.226,-2.871 5.529,-4.577 1.963,-1.936 3.357,-4.315 4.181,-7.136 0.792,-2.887 1.189,-7.02 1.189,-12.4 0,-5.381 -0.398,-9.482 -1.192,-12.303 -0.826,-2.822 -2.223,-5.266 -4.192,-7.333 -0.637,-0.755 -1.414,-1.493 -2.336,-2.214 -0.825,-0.82 -1.89,-1.525 -3.192,-2.116 -2.415,-1.411 -5.575,-2.149 -9.482,-2.215 -3.78,0.066 -6.877,0.804 -9.291,2.215 -2.446,1.279 -4.352,2.722 -5.718,4.33 -1.842,2.067 -3.209,4.511 -4.097,7.333 -0.859,2.821 -1.287,6.922 -1.287,12.303"
             style="fill:#053641;fill-opacity:1;fill-rule:nonzero;stroke:none"
             id="path124" />
        </g>
        <g
           id="g126"
           transform="translate(1426.4404,216.3906)">
          <path
             d="m 0,0 h 9.933 v -5.413 h 0.189 c 3.271,4.035 7.556,6.053 12.858,6.053 4.096,0 7.843,-1.494 11.241,-4.479 3.364,-3.018 5.127,-7.447 5.286,-13.287 v -33.955 h -9.932 v 30.451 c 0,3.58 -0.922,6.307 -2.765,8.18 -1.812,1.905 -4.149,2.858 -7.009,2.858 -2.861,0 -5.213,-0.953 -7.056,-2.858 -1.876,-1.873 -2.813,-4.6 -2.813,-8.18 V -51.081 H 0 Z"
             style="fill:#053641;fill-opacity:1;fill-rule:nonzero;stroke:none"
             id="path128" />
        </g>
        <g
           id="g130"
           transform="translate(1508.9668,195.4219)">
          <path
             d="m 0,0 c -0.128,3.989 -1.162,7.006 -3.104,9.05 -1.913,1.945 -4.365,2.918 -7.358,2.918 -2.994,0 -5.446,-0.973 -7.356,-2.918 -1.88,-2.044 -2.915,-5.061 -3.106,-9.05 z m -20.924,-8.455 c 0,-4.105 1.145,-7.223 3.435,-9.357 2.13,-2.167 4.927,-3.25 8.393,-3.25 4.039,0 7.648,1.658 10.827,4.974 l 7.203,-6.351 c -5.052,-5.575 -10.993,-8.33 -17.822,-8.264 -2.605,0 -5.147,0.393 -7.625,1.182 -1.239,0.425 -2.445,1 -3.62,1.721 -1.24,0.623 -2.399,1.395 -3.479,2.314 -2.097,1.902 -3.796,4.559 -5.099,7.971 -1.43,3.281 -2.144,7.546 -2.144,12.795 0,5.052 0.619,9.252 1.859,12.598 1.237,3.412 2.826,6.102 4.764,8.071 1.969,2 4.176,3.445 6.623,4.33 2.414,0.886 4.796,1.329 7.147,1.329 C -4.808,21.542 -0.027,19.623 3.88,15.849 7.851,12.01 9.867,6.727 9.932,0 v -8.455 z"
             style="fill:#053641;fill-opacity:1;fill-rule:nonzero;stroke:none"
             id="path132" />
        </g>
        <g
           id="g134"
           transform="translate(421.1765,685.2484)">
          <path
             d="m 0,0 c 24.964,3.263 63.06,11.381 65.5,13.405 160.447,131.923 -18.811,-72.538 157.412,71.703 75.187,61.535 48.301,35.585 107.371,-14.973 20.878,-17.907 43.47,29.263 21.985,66.973 -0.626,1.088 44.179,54.707 44.817,55.137 -0.543,4.097 17.414,-88.522 16.479,-24.382 -0.007,0.456 12.943,45.071 21.155,45.602 17.775,1.138 -7.499,17.047 23.036,36.142 7.346,4.578 17.488,27.847 19.285,32.4 0.303,-0.456 46.714,-42.062 53.758,-50.611 7.657,-9.256 48.359,-18.716 46.853,-51.241 -0.082,-1.796 14.993,-34.271 14.031,-51.546 -0.815,-14.794 40.19,-32.424 55.213,-69.603 19.246,-47.649 -5.198,45.425 14.493,15.429 C 677.404,49.977 688.709,58.83 715.575,19.121 718.547,14.77 725.951,4.503 730.605,0 h 3.889 c -0.311,2.175 -1.632,6.196 -4.376,12.697 -4.458,10.546 -9.257,49.673 -15.093,53.265 -10.022,6.146 -48.63,31.236 -48.504,39.329 0.627,38.798 50.477,-27.67 37.306,-0.278 -25.241,52.48 -14.169,18.387 -28.213,26.101 6.392,8.069 2.055,13.278 3.845,18.185 9.648,3.213 11.305,-1.441 -11.059,19.854 -23.776,22.611 7.182,32.981 -5.755,61.486 -5.532,12.164 14.733,11.002 28.41,-0.103 7.019,-5.716 58.646,-28.428 92.48,-42.389 26.828,-31.336 58.563,-52.254 95.192,-62.749 -27.941,15.656 -50.862,33.107 -68.762,52.379 1.283,-0.43 2.213,-0.682 2.713,-0.783 39.626,-6.501 29.788,-13.759 53.353,-26.936 15.131,-2.049 46.645,-39.709 89.711,-50.61 22.782,-5.792 46.31,-46.663 70.869,-64.19 46.543,-33.159 14.776,-16.163 65.664,-31.009 5.008,-1.466 9.25,-2.883 12.987,-4.249 h 17.856 c -27.543,9.434 -44.754,33.032 -64.405,39.835 -38.723,13.354 -58.42,42.212 -83.459,70.514 -26.441,29.896 -63.976,26.658 -77.702,43.275 -9.429,11.432 -64.539,40.746 -79.651,45.703 -0.38,0.353 -1.36,0.557 -1.986,0.986 -2.061,1.391 -3.061,1.391 -4.559,2.225 -3.452,1.974 -4.483,-0.05 -8.207,0.026 -1.404,0 -6.12,2.985 -6.267,3.389 -0.41,0.228 -2.244,0.987 -2.496,1.189 -2.347,1.972 -8.524,6.348 -11.433,6.652 -2.067,0.202 -5.735,2.68 -7.239,3.161 -4.016,1.316 -5.224,4.325 -10.971,5.312 -4.503,0.759 -10.294,2.25 -14.22,4.628 0.051,0.48 -47.808,13.86 -50.407,14.542 -0.474,0.103 -1.568,0.557 -2.979,1.189 -10.021,11.256 -26.278,13.557 -38.886,20.639 -5.811,3.237 -28.814,-9.03 -36.933,-14.29 -4.262,-2.783 -6.545,-2.732 -9.326,-5.084 -1.707,-1.441 -13.917,-6.829 -15.891,-5.108 -1.719,1.516 -0.588,0.985 -2.32,1.364 -7.132,1.569 -5.589,-2.503 -9.042,-2.983 -6.145,-0.835 -3.533,-1.746 -6.658,-2.833 -5.172,-1.847 -1.972,-3.137 -7.403,-3.036 -4.174,6.273 -15.979,8.019 -21.512,16.288 -1.22,1.847 -11.564,11.078 -14.871,11.155 -4.174,0.05 -16.049,12.291 -22.713,14.492 -0.057,0.025 -7.821,5.488 -8.238,5.842 -0.057,0.051 -5.913,2.63 -7.468,4.047 -2.099,1.922 -9.642,5.008 -15.505,6.602 -2.566,1.492 -5.152,2.755 -7.593,3.338 -8.782,2.15 -9.699,7.208 -16.029,4.426 -12.753,-5.54 -9.908,-3.187 -23.579,-12.115 -1.289,0.177 -8.422,-1.24 -9.117,-1.922 -3.655,-3.516 -6.342,-7.639 -10.414,-7.562 -7.309,0.126 -4.982,-1.468 -13.272,-5.793 -7.006,-3.718 -8.403,-6.424 -16.067,-9.611 -3.402,-1.441 -11.444,-9.004 -14.84,-8.649 -2.042,-1.239 -5.444,1.568 -9.447,-4.603 -0.726,-1.113 -5.242,-0.987 -9.44,-6.247 -0.171,-0.228 -4.47,-2.327 -5.646,-3.542 -7.24,-7.41 -3.338,-2.858 -6.608,-4.703 -4.603,-2.632 -9.471,-5.514 -14.373,-7.437 -9.723,-3.743 -9.306,-6.55 -13.985,-9.307 -6.203,-3.667 -6.602,-5.817 -14.544,-8.574 -4.279,-1.518 -18.343,-12.57 -22.984,-13.405 -4.47,-0.759 -20.909,-16.187 -27.366,-18.995 -0.505,-0.252 -2.06,-1.415 -2.503,-1.82 -9.504,-1.139 -12.717,-7.638 -20.86,-11.533 -3.718,-1.77 -4.539,-4.073 -9.13,-5.337 -6.52,-1.745 -15.96,-11.381 -18.672,-12.291 -5.489,-1.897 -14.392,-10.219 -19.444,-9.738 -0.076,0.026 -15.182,-8.473 -15.599,-9.08 -0.416,-0.582 -0.954,-0.784 -0.929,-1.341 -5.565,-4.35 -1.96,3.288 -12.608,-9.333 -6.817,-8.067 -24.495,-13.48 -35.75,-25.974 -2.504,-2.782 -3.566,3.92 -15.953,-14.543 C 82.623,57.665 72.67,59.765 58.799,48.688 48.422,40.417 41.454,43.983 25.811,31.488 15.087,22.94 3.27,15.605 -8.561,9.308 -13.158,6.83 -16.889,1.518 -21.504,0 Z"
             style="fill:#053641;fill-opacity:1;fill-rule:evenodd;stroke:none"
             id="path136" />
        </g>
        <g
           id="g138"
           transform="translate(1701.4008,333.1087)">
          <path
             d="M 0,0 C -500.782,-13.297 -1002.55,-13.297 -1503.389,0 -1002.405,7.623 -501.013,7.623 0,0"
             style="fill:#053641;fill-opacity:1;fill-rule:evenodd;stroke:none"
             id="path140" />
        </g>
        <g
           id="g142"
           transform="translate(1633.4637,161.1726)">
          <path
             d="M 0,0 C -29.156,18.304 -52.48,42.354 -69.885,72.058 -43.228,51.313 -19.921,27.281 0,0"
             style="fill:#053641;fill-opacity:1;fill-rule:evenodd;stroke:none"
             id="path144" />
        </g>
        <g
           id="g146"
           transform="translate(1556.1987,161.1726)">
          <path
             d="M 0,0 C 19.921,27.281 43.228,51.313 69.885,72.058 52.48,42.354 29.156,18.304 0,0"
             style="fill:#053641;fill-opacity:1;fill-rule:evenodd;stroke:none"
             id="path148" />
        </g>
        <g
           id="g150"
           transform="translate(398.7838,161.1726)">
          <path
             d="M 0,0 C -29.156,18.304 -52.48,42.354 -69.885,72.058 -43.228,51.313 -19.921,27.281 0,0"
             style="fill:#053641;fill-opacity:1;fill-rule:evenodd;stroke:none"
             id="path152" />
        </g>
        <g
           id="g154"
           transform="translate(321.5187,161.1726)">
          <path
             d="M 0,0 C 19.921,27.281 43.228,51.313 69.885,72.058 52.48,42.354 29.156,18.304 0,0"
             style="fill:#053641;fill-opacity:1;fill-rule:evenodd;stroke:none"
             id="path156" />
        </g>
      </g>
    </g>
  </g>
</svg>
