<svg width="49" height="16" viewBox="0 0 49 16" fill="none" xmlns="http://www.w3.org/2000/svg">
<g id="Frame 4">
<path id="Vector" d="M25.3416 5.11501C25.3137 7.34388 27.306 8.5876 28.8068 9.32714C30.3488 10.0858 30.8667 10.5724 30.8606 11.251C30.8491 12.2894 29.6306 12.7477 28.4904 12.7655C26.5012 12.7966 25.3445 12.2224 24.425 11.7881L23.7083 15.1788C24.6309 15.6087 26.3392 15.9835 28.1107 16C32.269 16 34.9894 13.9244 35.0042 10.7063C35.0205 6.62215 29.4174 6.39609 29.4557 4.57057C29.4689 4.01703 29.9913 3.42633 31.1359 3.27614C31.7024 3.20027 33.2664 3.14221 35.0396 3.96787L35.7355 0.68728C34.782 0.336188 33.5564 0 32.0305 0C28.1166 0 25.3638 2.10384 25.3416 5.11501ZM42.4229 0.282576C41.6636 0.282576 41.0237 0.730439 40.7381 1.41772L34.7982 15.759H38.9535L39.7803 13.4483H44.858L45.3376 15.759H49L45.8041 0.282576H42.4229ZM43.0042 4.46335L44.2034 10.2749H40.9192L43.0042 4.46335ZM20.3036 0.282769L17.0283 15.7588H20.9879L24.2617 0.282382H20.3036M14.446 0.282382L10.3246 10.8165L8.6575 1.85978C8.46188 0.859921 7.68936 0.282576 6.83148 0.282576H0.0943633L0 0.731988C1.3831 1.03547 2.95455 1.52494 3.9066 2.04868C4.48924 2.36861 4.65538 2.64828 4.84679 3.40853L8.00442 15.759H12.1888L18.6039 0.282576L14.446 0.282382Z" fill="url(#paint0_linear_496_1476)"/>
</g>
<defs>
<linearGradient id="paint0_linear_496_1476" x1="2252.73" y1="48.096" x2="2299.56" y2="-1595.1" gradientUnits="userSpaceOnUse">
<stop stop-color="#222357"/>
<stop offset="1" stop-color="#254AA5"/>
</linearGradient>
</defs>
</svg>
