<svg width="38" height="24" viewBox="0 0 38 24" fill="none" xmlns="http://www.w3.org/2000/svg">
<path d="M37.3714 6.17143C37.0286 3.6 36.6857 1.71429 35.6571 1.02857C34.6286 0.171428 25.7143 0 18.8571 0C12 0 3.08571 0.171428 2.05714 1.02857C1.02857 1.71429 0.685714 3.6 0.342857 6.17143C7.66345e-08 8.74286 0 10.2857 0 12C0 13.7143 7.66345e-08 15.2571 0.342857 17.8286C0.685714 20.4 1.02857 22.2857 2.05714 22.9714C3.08571 23.8286 12 24 18.8571 24C25.7143 24 34.6286 23.8286 35.6571 22.9714C36.6857 22.2857 37.0286 20.4 37.3714 17.8286C37.7143 15.2571 37.7143 13.7143 37.7143 12C37.7143 10.2857 37.7143 8.74286 37.3714 6.17143ZM15.4286 18.1714V5.82857L25.7143 12L15.4286 18.1714Z" fill="#F23E2E"/>
</svg>
